<svg width="881" height="658" viewBox="0 0 881 658" fill="none" xmlns="http://www.w3.org/2000/svg">
<path d="M705.49 434.81C679.714 458.872 645.751 472.228 610.49 472.17C533.22 472.17 470.34 408.65 471.09 331.38C471.302 306.245 478.335 281.639 491.44 260.19C498.017 249.583 500.791 237.055 499.306 224.663C497.822 212.271 492.166 200.753 483.27 192L319.88 33C311.717 23.8816 301.723 16.5861 290.551 11.5893C279.379 6.59246 267.279 4.0065 255.04 4H39.69C30.2244 4 21.1465 7.76019 14.4534 14.4534C7.76019 21.1465 4 30.2244 4 39.69V617.84C4 627.306 7.76019 636.383 14.4534 643.077C21.1465 649.77 30.2244 653.53 39.69 653.53H876.12" stroke="#13876F" stroke-width="8" stroke-miterlimit="10" stroke-linecap="round"/>
</svg>
