<svg width="883" height="658" viewBox="0 0 883 658" fill="none" xmlns="http://www.w3.org/2000/svg">
<path d="M665.53 544.91C785.105 544.91 882.04 518.392 882.04 485.68C882.04 452.968 785.105 426.45 665.53 426.45C545.955 426.45 449.02 452.968 449.02 485.68C449.02 518.392 545.955 544.91 665.53 544.91Z" fill="#EBEBEB"/>
<path d="M203.63 226.72C229.407 202.66 263.369 189.304 298.63 189.36C375.91 189.36 438.79 252.88 438.03 330.15C437.816 356.272 430.228 381.802 416.14 403.8C409.726 413.968 406.813 425.954 407.846 437.932C408.878 449.909 413.8 461.22 421.86 470.14L560.24 624.58C568.406 633.689 578.4 640.975 589.57 645.963C600.74 650.951 612.837 653.53 625.07 653.53H840.43C849.896 653.53 858.974 649.77 865.667 643.077C872.36 636.383 876.12 627.306 876.12 617.84V39.69C876.12 35.0031 875.197 30.3621 873.403 26.032C871.61 21.7019 868.981 17.7675 865.667 14.4534C862.353 11.1392 858.418 8.51033 854.088 6.71674C849.758 4.92315 845.117 4 840.43 4H4" stroke="#243437" stroke-width="8" stroke-miterlimit="10" stroke-linecap="round"/>
</svg>
