<svg width="410" height="516" viewBox="0 0 410 516" fill="none" xmlns="http://www.w3.org/2000/svg">
<path d="M26.2101 336.31C31.6601 349.31 25.3201 348.45 25.3201 348.45C20.2501 346.74 15.96 337.31 15.96 337.31C-0.219951 302.6 11.2101 249.62 11.2101 249.62C31.8801 248.09 30.2101 264.09 30.2101 264.09C19.3801 304.89 19.9301 329.36 19.9301 329.36C19.9301 329.36 24.9101 332.66 26.2101 336.31Z" fill="#FFB897"/>
<path d="M171.151 251.84C172.431 250.64 170.731 250.16 170.731 250.16C168.972 250.02 167.204 250.047 165.451 250.24C161.419 250.494 157.377 250.541 153.341 250.38C153.341 250.38 156.601 245.7 154.001 244.03L148.631 250.38L144.051 256.84V257.01C140.781 260.36 132.161 268.66 113.731 283.75C106.451 259.52 98.7306 239.89 98.7306 239.89C78.7306 243.07 86.7306 267.04 86.7306 267.04C92.5506 280.13 97.4306 291.77 101.511 301.95C101.511 301.95 105.701 312.49 114.621 304.63C115.709 304.002 116.749 303.294 117.731 302.51C129.881 289.93 141.211 276.12 149.551 262.41L153.141 263.22C153.141 263.22 160.391 263.22 163.981 261.91C163.981 261.91 171.391 258.62 168.161 258.64C169.522 258.146 170.658 257.176 171.361 255.91C171.361 255.91 171.781 255.33 170.691 254.85C171.231 254.62 171.751 254.38 172.241 254.13C172.211 254.13 173.621 252.14 171.151 251.84ZM160.291 257.61C160.291 257.61 161.151 257.49 162.461 257.23C161.746 257.4 161.021 257.527 160.291 257.61V257.61Z" fill="#FFB897"/>
<path d="M359.89 433C361.89 432.66 360.89 432.53 360.89 432.53C360.89 432.53 359.66 432.47 356.42 432.53C356.42 432.53 351.47 432.64 346.2 432.53C346.2 432.53 352.67 431.23 351.83 430.77L342.27 432.53L333.27 434.32L333.16 434.37C327.75 435.3 313.92 437.6 286.47 441.78L287.33 441.34C288.68 441.04 290.05 440.7 291.41 440.34C294.55 439.358 297.606 438.128 300.55 436.66C303.46 435.4 306.66 434.13 309.64 432.87C312.89 431.5 321.13 427.46 322.27 424.17C322.34 424.17 322.38 424.1 322.4 424.05C322.42 424 322.62 423.83 322.58 423.72L322.53 423.19C322.38 423.13 322.53 423.03 322.35 423.01C322.31 422.831 322.242 422.659 322.15 422.5C324.97 421.77 327.64 421.01 329.79 420.22C332.84 419.1 333.73 418.22 332.18 417.75C330.63 417.28 326.84 417.54 323.18 417.75L328.51 415.9C335.793 415.093 342.907 413.164 349.6 410.18C354.52 408.18 358.96 406.4 362.51 404.8C369.15 403.8 374.71 402.54 378.24 400.86C379.53 400.25 379.31 399.74 378.24 399.47C378.95 399.25 379.67 399.02 379.97 398.89C381.2 398.37 381.45 397.99 380.97 397.72C379.843 397.4 378.667 397.289 377.5 397.39C376.658 397.482 375.808 397.465 374.97 397.34C374.78 397.21 375.41 396.9 375.31 396.75C374.89 396.11 370.17 396.56 366.52 396.94C361.16 397.5 346.74 399.21 336.61 400.94L334.94 401.21C323.94 403.05 313.55 405.6 307.94 408.07C305.515 409.103 303.175 410.323 300.94 411.72C298.35 413.42 296.7 415.34 296.49 416.72C296.28 418.1 299.44 417.82 305.49 417.3L306.82 417.18L304.34 418.04C301.7 417.93 299.13 417.78 295.76 417.93C291.457 418.151 287.178 418.703 282.96 419.58C280.73 420.04 278.75 420.53 276.96 421.09C276.34 421.28 274.96 421.85 273.88 422.27C258.21 424.7 244.6 428 240.38 429C232.76 430.83 225.93 432.72 219.54 434.71C215.93 435.83 212.54 436.96 208.81 438.08C204.81 439.27 200.59 440.26 196.2 441.37C190.03 442.93 186.79 444.37 187.47 445.37C176.92 449.19 167.09 453.25 162.03 456.67C162.03 456.67 158.03 459.28 160.93 459.76C161.323 459.785 161.717 459.785 162.11 459.76C160.17 460.76 159.49 461.47 156.78 462.95C149.91 466.71 140.3 469.95 122.78 475.78C113.02 479.04 115.06 478.16 104.06 481.78C100.94 482.78 91.9201 485.78 67.4701 494.58C61.9301 496.58 56.9201 498.37 52.5301 499.96C52.3103 500.034 52.0963 500.124 51.8901 500.23C51.4592 500.356 51.0381 500.513 50.6301 500.7L46.1601 502.21C43.5401 502.86 42.8901 503.57 44.5101 503.66C50.9113 503.865 57.3189 503.694 63.7001 503.15C76.0801 502.15 87.1001 501.37 89.0101 500.15C90.9201 498.93 79.8501 498.27 75.0101 498.15C81.7301 495.3 91.8101 491.29 105.89 486.56C116.01 483.16 120.51 481.97 131.04 478.67C167.68 467.15 180.86 460.84 184.83 460.37C191.55 459.57 189.52 462.12 175.49 473.43C174.25 474.43 171.39 475.59 167.49 476.66C159.04 478.98 150.13 481.54 141.03 484.32C119.89 490.78 104.03 496.55 92.2901 501.2C91.4892 501.367 90.7082 501.619 89.9601 501.95C88.3701 502.49 94.1901 504.43 92.6001 504.95C89.8801 505.63 89.4901 508.31 91.2201 508.4C96.8512 508.801 102.505 508.764 108.13 508.29C121.2 507.29 128.29 500.12 130.21 498.86C132.13 497.6 121.47 499.49 116.15 499.36C133.708 491.916 151.749 485.669 170.15 480.66C178.47 478.34 179.15 478.33 184.4 476.72C207.45 469.63 202.77 467.89 224.92 458.06C229.105 456.226 233.388 454.627 237.75 453.27C239.568 452.861 241.333 452.243 243.01 451.43C250.35 449.32 258.17 446.83 265.88 444.32L261.66 446.86C261.66 446.86 256.72 449.78 270.46 447.6C271.66 447.45 273.08 447.26 274.75 447.01C294.96 443.52 315.45 439.7 333.38 435.89L335.72 436.12C335.72 436.12 341.78 436.12 345.82 435.76C345.82 435.76 354.64 434.84 351.92 434.85C353.554 434.694 355.177 434.441 356.78 434.09C356.78 434.09 357.6 433.93 357.07 433.8L358.94 433.6C358.94 433.6 361.7 433 359.89 433ZM171.64 454.45C171.64 454.45 175.85 452.95 184.64 450.2C184.534 450.247 184.43 450.301 184.33 450.36C183.93 450.59 183.78 450.81 183.83 451.02C179.942 452.045 176.112 453.284 172.36 454.73L172.09 454.85C171.967 454.689 171.814 454.554 171.64 454.45V454.45ZM346.21 434.56L348.33 434.45L346.21 434.56Z" fill="#EBEBEB"/>
<path d="M108.299 497.38C104.379 496.2 103.769 487.38 104.029 486.77C104.289 486.16 105.779 487.7 103.539 488.16C101.299 488.62 95.8495 490.05 92.8895 490.21L91.1895 493.12C91.2695 494.71 96.0895 501.12 97.3995 501.24L108.049 497.59" fill="#FFB897"/>
<path d="M48.2101 495.72C43.6301 494.55 46.8401 485.97 47.1401 485.34C47.4401 484.71 50.9101 484.86 48.3001 485.34C45.6901 485.82 39.3001 487.25 35.8301 487.41L36.0101 490.74C36.1001 492.33 35.4501 499.14 37.0101 499.22L47.3601 495.35" fill="#FFB897"/>
<path d="M23.2799 312C21.7999 317.52 19.7199 329.82 21.4199 339.37C22.7199 346.74 24.7699 348.61 27.4199 356.06C32.2399 369.61 31.8199 381.2 31.0399 402.33C30.6099 414.1 30.0399 410.93 29.4299 424.09C29.2699 427.82 28.8499 438.67 29.8299 470.26C30.0499 477.41 32.5599 484.1 32.8299 489.83C32.8899 491.48 33.5299 491.07 35.1299 491.61C37.46 492.527 40.0304 492.636 42.4299 491.92C47.1799 490.86 47.5499 488.11 47.5499 488.11C47.5499 488.11 48.9899 486.3 48.7799 485.17C46.7799 474.79 48.0099 459.35 48.5799 441.4C48.9599 429.15 50.2599 424.86 51.4599 412.93C55.6199 371.39 49.5399 348.64 52.6999 346.93C58.0699 344.04 64.5199 353.23 87.1499 394.04C89.1499 397.67 88.7499 405.69 88.7499 405.69C88.7499 405.69 84.7499 423.28 83.4399 433.31C80.6499 454.75 85.0199 476.21 87.5699 492.2C87.6642 492.806 87.8461 493.396 88.1099 493.95C88.2612 494.274 88.5035 494.546 88.8072 494.734C89.1108 494.923 89.4627 495.018 89.8199 495.01C93.1214 494.868 96.3747 494.165 99.4399 492.93C105.1 490.8 105.54 489.09 106.04 487.93C100.21 458.69 102.23 436.43 106.04 420.18C108.04 411.8 108.86 411.78 109.57 405.98C112.7 380.38 100.92 374.11 93.3599 338.65C89.8499 322.15 94.6299 318.71 90.3599 313.42C79.5199 300.17 48.6099 303.42 23.2799 312Z" fill="#13876F"/>
<path d="M50.2695 206.06L71.8195 204.72V183.54L50.2695 185.15V206.06Z" fill="#FFA383"/>
<path d="M34.55 128C40.55 123.63 58.55 118.88 65.78 126.54C72.69 133.83 75.09 147.86 77.29 165.07C78.29 172.63 80.16 181.23 71.56 185.88C65 189.42 56.31 190.61 49.43 190.05C35.48 188.94 33.59 176.05 29.51 162.83C25.43 149.61 21.64 137.36 34.51 128" fill="#FFB897"/>
<path d="M74.6401 126.4C74.7516 125.706 74.7784 125.001 74.7201 124.3C74.578 123.438 74.2528 122.616 73.7663 121.889C73.2799 121.163 72.6436 120.55 71.9001 120.09C70.2965 119.151 68.4416 118.732 66.5901 118.89C65.3901 118.89 64.3101 119.37 63.3801 118.72C62.6901 118.24 62.3801 117.13 61.7301 116.57C59.0501 114.29 54.9101 115.88 51.8601 117.26C47.3801 119.26 36.0301 125.47 29.8601 131.67C29.5001 131.99 29.1501 132.32 28.8001 132.67C21.9301 139.28 18.3501 148.5 20.1801 157.39C21.1445 161.917 22.5789 166.331 24.4601 170.56C27.5391 177.107 31.5545 183.17 36.3801 188.56C40.3801 193.01 43.7201 192.56 49.1401 190.66C54.5601 188.76 56.2101 186 57.2101 180C57.9642 176.375 58.4422 172.698 58.6401 169C59.3001 155.47 65.5501 151.45 67.0101 150.63C67.7406 150.227 68.4453 149.78 69.1201 149.29C76.3101 144.6 81.5301 139.54 79.3901 131.37C79.0026 130.244 78.3768 129.214 77.5554 128.351C76.734 127.488 75.7362 126.812 74.6301 126.37" fill="#1F0B0B"/>
<path d="M109.979 260.53C109.129 256.01 108.569 251.42 107.789 246.88C106.789 241.03 101.319 221.88 86.9394 209.48C87.8442 206.826 88.2675 204.032 88.1894 201.23C88.1671 199.368 87.6255 197.55 86.6255 195.979C85.6255 194.408 84.2069 193.148 82.5294 192.34C78.2694 190.34 73.6994 192.1 69.3194 192.82C64.3605 193.606 59.3355 193.894 54.3194 193.68C49.4694 193.49 44.5094 192.21 39.6294 192.95C37.693 193.203 35.8325 193.865 34.1707 194.89C32.5089 195.916 31.0837 197.283 29.9894 198.9C28.8933 200.522 28.207 202.385 27.9894 204.33C27.9094 205.03 28.2494 207.07 28.3794 208.6C18.0094 217.48 13.0894 229.38 11.5294 233C8.76109 239.556 6.98818 246.49 6.26936 253.57C5.82936 257.57 5.70937 261.71 5.07937 265.74C4.39937 270.02 2.74937 273.58 1.32937 277.59C-0.910635 283.95 0.909365 289.91 6.32937 293.14C10.3294 295.53 15.9194 297.09 20.2494 294.76C20.4194 297.85 20.5994 300.97 20.8494 304.13C20.7294 305.68 20.5794 307.22 20.3994 308.76C19.7494 314.21 17.7494 320.31 18.9094 325.76C20.3194 332.35 25.1194 335.32 30.5694 336.3C104.399 333.79 91.8394 315.47 92.1694 313.83C93.8994 305.22 94.6394 294.83 95.1694 284.51C102.049 284.67 110.119 282.56 111.749 273.81C112.589 269.35 110.779 264.82 109.979 260.53Z" fill="#0762B3"/>
<path d="M77.2105 236.11C77.5847 236.322 77.997 236.458 78.4237 236.51C78.8505 236.563 79.2834 236.53 79.6977 236.415C80.112 236.3 80.4995 236.104 80.838 235.839C81.1765 235.574 81.4594 235.245 81.6705 234.87L92.2605 217C92.9305 215.88 93.0605 215.68 92.6005 215.09C92.3013 214.66 91.9668 214.255 91.6005 213.88L89.7805 212C89.3405 211.74 89.1705 211.29 88.8505 211.32C88.0705 211.38 87.4005 212.58 86.7105 213.74L76.1505 231.56C75.6921 232.305 75.5463 233.201 75.7448 234.053C75.9433 234.905 76.47 235.644 77.2105 236.11V236.11Z" fill="#EB922D"/>
<path d="M84.2093 229.3C84.0293 232.03 87.4493 265.37 89.3093 286C91.1693 306.63 89.6793 313.89 84.2093 319C78.7393 324.11 59.7993 320.81 47.8693 318.67C36.1193 316.57 20.4193 312.57 18.1393 306.61C15.8593 300.65 17.1393 267.77 22.6893 244.94C28.2293 221.94 33.1793 215.27 44.0193 214.21C54.9693 213.13 85.2093 213.86 84.2093 229.3Z" fill="#FF9717"/>
<path d="M83.2095 221.34C83.2751 221.396 83.3269 221.466 83.3608 221.546C83.3948 221.625 83.4099 221.711 83.4051 221.797C83.4002 221.884 83.3755 221.967 83.3329 222.042C83.2903 222.117 83.231 222.182 83.1595 222.23C79.8495 224.52 64.8695 235.75 61.7595 253.72C58.2695 273.85 16.3295 262.46 17.4295 252.55C18.5295 242.64 21.7595 218.46 42.6995 214.67C56.9095 212.09 70.3495 214.35 78.8795 218.47C80.4234 219.265 81.8754 220.228 83.2095 221.34V221.34Z" fill="#EB8B15"/>
<path d="M84.4705 208.4C84.4705 216.6 73.8205 225.1 57.0505 225.93C40.6205 226.74 28.2305 219.35 28.2305 211.43C28.2305 203.51 40.6205 197.83 57.0505 196.73C73.8205 195.6 84.4705 200.2 84.4705 208.4Z" fill="#0762B3"/>
<path d="M49.2101 166.2C50.5101 171.81 55.2101 175.2 59.7501 173.66C64.2901 172.12 66.9301 166.33 65.6001 160.66C64.2701 154.99 59.5101 151.66 54.9801 153.26C50.4501 154.86 47.8901 160.6 49.2101 166.2Z" fill="black"/>
<path d="M53.3004 164.81C54.1704 168.51 57.3004 170.71 60.3004 169.72C63.3004 168.73 65.0204 164.89 64.1504 161.16C63.2804 157.43 60.1504 155.26 57.1504 156.28C54.1504 157.3 52.4404 161.12 53.3004 164.81Z" fill="#0D151F"/>
<path d="M60.0406 159.18C60.0406 159.18 46.3605 128.57 30.8105 130.74L28.8105 132.62C28.8105 132.62 53.5206 137.07 56.4406 160.92C56.4506 160.92 59.4906 161.87 60.0406 159.18Z" fill="black"/>
<path d="M95.1396 497.28C95.1396 497.28 93.4696 497.9 91.6096 500.66C89.7496 503.42 86.4096 509.1 86.4796 509.58C86.5496 510.06 100.56 510.38 104.93 509.92C109.07 509.49 116.12 508.81 118.93 508.26C121.74 507.71 129.27 505.51 129.99 504.81C130.71 504.11 130.38 502.99 131.16 502.51C131.04 502.125 130.82 501.777 130.524 501.504C130.227 501.23 129.863 501.039 129.47 500.95C128.03 500.56 122.89 500.75 121.13 500.49C119.37 500.23 110.13 498.09 108.56 496.67C106.99 495.25 103.11 498.29 100.89 498.41C98.6696 498.53 98.0396 497.1 95.1296 497.28" fill="#1A1A1A"/>
<path d="M87.8204 506.52C87.7004 506.52 86.5004 507.09 85.1504 510.14C83.8004 513.19 83.4104 514.7 83.9804 514.75C84.5504 514.8 94.6504 515.6 97.1304 515.08C99.6104 514.56 101 513.49 102.77 514.03C104.54 514.57 114.36 512.75 116.55 512.03C118.74 511.31 125.55 508.93 127.88 507.74C130.21 506.55 131.76 505.15 131.78 504.74C131.618 503.956 131.391 503.186 131.1 502.44C131.1 502.44 130.84 502.44 130.4 503.83C129.96 505.22 119.64 507.83 115.4 508.12C110.86 508.39 106.32 507.7 104.16 508.44C102 509.18 101.39 509.44 99.9904 508.3C98.5904 507.16 91.5104 506.3 87.8604 506.54" fill="#F2EBE8"/>
<path d="M35.2097 494.55C35.2097 494.55 33.5397 495.18 31.6897 497.93C29.8397 500.68 26.4897 506.38 26.5597 506.86C26.6297 507.34 40.6297 507.65 44.9997 507.2C49.1397 506.77 56.1997 506.08 58.9997 505.54C61.7997 505 69.3397 502.78 70.0497 502.09C70.7597 501.4 70.4397 500.27 71.2197 499.79C71.1012 499.403 70.8825 499.053 70.5857 498.778C70.289 498.502 69.9247 498.31 69.5297 498.22C68.0897 497.84 62.9497 498.03 61.1897 497.77C59.4297 497.51 50.1897 495.36 48.6197 493.95C47.0497 492.54 43.1697 495.57 40.9497 495.69C38.7297 495.81 38.1097 494.37 35.1897 494.55" fill="#1A1A1A"/>
<path d="M27.9194 503.67C27.8094 503.67 26.6094 504.24 25.2594 507.29C23.9094 510.34 23.5194 511.85 24.0794 511.9C24.6394 511.95 34.7594 512.74 37.2294 512.23C39.6994 511.72 41.0994 510.64 42.8794 511.18C44.6594 511.72 54.4694 509.9 56.6594 509.18C58.8494 508.46 65.6594 506.08 67.9894 504.89C70.3194 503.7 71.8694 502.29 71.8894 501.89C71.726 501.105 71.4952 500.335 71.1994 499.59C71.1994 499.59 70.9494 499.59 70.5094 500.98C70.0694 502.37 59.7494 504.98 55.5094 505.27C50.9594 505.54 46.4294 504.84 44.2594 505.59C42.0894 506.34 41.4994 506.59 40.0994 505.45C38.6994 504.31 31.6094 503.45 27.9594 503.69" fill="#F2EBE8"/>
<path d="M225.865 193.362L181.071 218.613C179.921 219.261 179.515 220.718 180.163 221.868L230.55 311.255C231.198 312.404 232.656 312.811 233.806 312.163L278.599 286.913C279.749 286.265 280.156 284.807 279.508 283.657L229.12 194.271C228.472 193.121 227.015 192.714 225.865 193.362Z" fill="#13876F" stroke="#243437" stroke-width="2.16"/>
<path d="M243.019 242.2L227.109 237.77" stroke="#FDFDFD" stroke-width="2.16"/>
<path d="M217.77 263.46L233.23 269.27" stroke="#FDFDFD" stroke-width="2.16"/>
<path d="M218.32 242.72L213.88 258.63" stroke="#FDFDFD" stroke-width="2.16"/>
<path d="M242.311 264.15L245.341 247.91" stroke="#FDFDFD" stroke-width="2.16"/>
<path d="M229.84 262.66C235.313 262.66 239.75 258.223 239.75 252.75C239.75 247.277 235.313 242.84 229.84 242.84C224.367 242.84 219.93 247.277 219.93 252.75C219.93 258.223 224.367 262.66 229.84 262.66Z" fill="#243437"/>
<path d="M224.21 197.05C224.21 197.05 227.21 198.63 227.97 200.45C228.88 202.52 226.43 204.25 227.54 206.21C228.65 208.17 232.69 208.82 232.69 208.82" stroke="#FDFDFD" stroke-width="2.16"/>
<path d="M235.43 308.47C235.43 308.47 235.6 305.11 234.43 303.47C233.13 301.62 230.38 302.82 229.27 300.86C228.16 298.9 229.71 295.09 229.71 295.09" stroke="#FDFDFD" stroke-width="2.16"/>
<path d="M185.07 219.11C185.07 219.11 184.89 222.47 186.07 224.11C187.37 225.96 190.12 224.76 191.23 226.72C192.34 228.68 190.79 232.49 190.79 232.49" stroke="#FDFDFD" stroke-width="2.16"/>
<path d="M274.599 286.39C274.599 286.39 271.599 284.81 270.839 282.99C269.929 280.92 272.379 279.19 271.269 277.23C270.159 275.27 266.109 274.62 266.109 274.62" stroke="#FDFDFD" stroke-width="2.16"/>
<path d="M252.59 281.52C252.949 281.931 253.221 282.411 253.39 282.93C253.73 284.69 250.46 280.46 248.2 280.28C245.94 280.1 245.46 281.42 243.2 281.28M237.21 277.18C237.637 276.853 238.109 276.587 238.61 276.39C241.1 275.64 241.92 278.97 243.2 281.24C244.48 283.51 246.9 285.94 244.98 287.67C244.552 287.996 244.081 288.262 243.58 288.46L237.21 277.18ZM247.82 273.06C247.65 272.539 247.378 272.056 247.02 271.64C245.7 270.44 247.63 275.43 246.61 277.46C245.59 279.49 244.22 279.21 243.2 281.24L247.82 273.06Z" stroke="#243437" stroke-width="2.16"/>
<path d="M212.21 232.25C212.381 232.768 212.653 233.247 213.01 233.66C214.33 234.86 212.41 229.87 213.43 227.85C214.45 225.83 215.82 226.09 216.84 224.06M216.46 216.84C215.958 217.036 215.487 217.302 215.06 217.63C213.13 219.36 215.56 221.79 216.84 224.06C218.12 226.33 218.94 229.67 221.42 228.92C221.921 228.723 222.393 228.457 222.82 228.13L216.46 216.84ZM207.44 223.78C207.085 223.367 206.817 222.888 206.65 222.37C206.3 220.62 209.57 224.85 211.84 225.02C214.11 225.19 214.57 223.89 216.84 224.02L207.44 223.78Z" stroke="#243437" stroke-width="2.16"/>
<path d="M308.931 125.794L152.959 144.834C150.953 145.079 149.525 146.904 149.77 148.911L159.311 227.071C159.556 229.077 161.381 230.505 163.388 230.26L319.36 211.22C321.366 210.975 322.794 209.15 322.549 207.143L313.008 128.983C312.763 126.977 310.938 125.549 308.931 125.794Z" fill="#9B51E0" stroke="#F7F7F7" stroke-width="2.44"/>
<path d="M237.2 152.19L257.11 167.77" stroke="#FDFDFD" stroke-width="2.44"/>
<path d="M233.921 202.62L212.721 188.83" stroke="#FDFDFD" stroke-width="2.44"/>
<path d="M258.99 183.11L243.41 203.03" stroke="#FDFDFD" stroke-width="2.44"/>
<path d="M210.79 172.99L228.05 154.51" stroke="#FDFDFD" stroke-width="2.44"/>
<path d="M236.16 193.19C244.538 193.19 251.33 186.398 251.33 178.02C251.33 169.642 244.538 162.85 236.16 162.85C227.782 162.85 220.99 169.642 220.99 178.02C220.99 186.398 227.782 193.19 236.16 193.19Z" fill="#F7F7F7"/>
<path d="M309.951 134.37C309.951 134.37 305.301 132.15 302.341 132.82C298.971 133.58 299.061 138.17 295.631 138.59C292.201 139.01 287.721 134.59 287.721 134.59" stroke="#FDFDFD" stroke-width="2.44"/>
<path d="M162.38 221.73C162.38 221.73 166.38 218.46 169.38 218.4C172.83 218.33 173.85 222.8 177.28 222.4C180.71 222 184 216.63 184 216.63" stroke="#FDFDFD" stroke-width="2.44"/>
<path d="M318.29 202.67C318.29 202.67 314.29 205.94 311.29 206C307.83 206.07 306.81 201.59 303.38 202C299.95 202.41 296.67 207.78 296.67 207.78" stroke="#FDFDFD" stroke-width="2.44"/>
<path d="M154.029 153.38C154.029 153.38 158.679 155.6 161.639 154.93C165.009 154.16 164.919 149.57 168.349 149.15C171.779 148.73 176.259 153.15 176.259 153.15" stroke="#FDFDFD" stroke-width="2.44"/>
<path d="M180.03 176.1C179.198 176.032 178.361 176.134 177.57 176.4C175.09 177.57 183.28 177.76 185.57 180.4C187.86 183.04 186.66 184.8 188.93 187.4M199.36 191.11C199.372 190.287 199.271 189.466 199.06 188.67C197.73 184.93 192.87 186.94 188.91 187.43C184.95 187.92 179.75 187.12 179.36 191.07C179.343 191.897 179.444 192.722 179.66 193.52L199.36 191.11ZM194.8 174.29C195.592 174.028 196.428 173.926 197.26 173.99C199.95 174.53 192.05 176.69 190.47 179.79C188.89 182.89 190.47 184.33 188.91 187.43L194.8 174.29Z" stroke="#F7F7F7" stroke-width="2.44"/>
<path d="M277.43 181.14C276.638 181.402 275.801 181.504 274.97 181.44C272.29 180.9 280.19 178.74 281.76 175.64C283.33 172.54 281.76 171.1 283.33 168M292.59 161.9C292.801 162.699 292.901 163.524 292.89 164.35C292.5 168.35 287.3 167.51 283.34 167.99C279.38 168.47 274.52 170.49 273.19 166.75C272.978 165.951 272.877 165.127 272.89 164.3L292.59 161.9ZM292.21 179.3C293.045 179.368 293.885 179.266 294.68 179C297.15 177.83 288.97 177.64 286.68 175C284.39 172.36 285.6 170.6 283.32 168L292.21 179.3Z" stroke="#F7F7F7" stroke-width="2.44"/>
<path d="M256.28 3.76563L188.188 124.956C187.311 126.516 187.865 128.492 189.425 129.368L250.156 163.49C251.716 164.367 253.691 163.813 254.567 162.253L322.66 41.062C323.537 39.5019 322.982 37.5267 321.422 36.6502L260.692 2.52801C259.132 1.65149 257.157 2.20561 256.28 3.76563Z" fill="#13876F" stroke="#243437" stroke-width="2.16"/>
<path d="M276.899 90.8601L270.859 69.3201" stroke="#FDFDFD" stroke-width="2.16"/>
<path d="M234.54 76.5601L238.68 98.5401" stroke="#FDFDFD" stroke-width="2.16"/>
<path d="M258.94 62.62L237.4 68.66" stroke="#FDFDFD" stroke-width="2.16"/>
<path d="M250.99 105.46L271.92 97.5601" stroke="#FDFDFD" stroke-width="2.16"/>
<path d="M255.42 96.4201C262.832 96.4201 268.84 90.4117 268.84 83.0001C268.84 75.5884 262.832 69.5801 255.42 69.5801C248.008 69.5801 242 75.5884 242 83.0001C242 90.4117 248.008 96.4201 255.42 96.4201Z" fill="#243437"/>
<path d="M315.98 37.34C315.98 37.34 316.23 41.89 314.68 44.08C312.92 46.58 309.2 44.96 307.68 47.63C306.16 50.3 308.28 55.44 308.28 55.44" stroke="#FDFDFD" stroke-width="2.16"/>
<path d="M194.82 128.65C194.82 128.65 198.82 126.5 199.9 124.04C201.12 121.24 197.8 118.89 199.3 116.23C200.8 113.57 206.3 112.68 206.3 112.68" stroke="#FDFDFD" stroke-width="2.16"/>
<path d="M262.9 7.52002C262.9 7.52002 258.9 9.67002 257.82 12.13C256.6 14.93 259.92 17.27 258.42 19.94C256.92 22.61 251.42 23.49 251.42 23.49" stroke="#FDFDFD" stroke-width="2.16"/>
<path d="M247.93 158.49C247.93 158.49 247.68 153.94 249.22 151.75C250.98 149.25 254.71 150.87 256.22 148.2C257.73 145.53 255.62 140.39 255.62 140.39" stroke="#FDFDFD" stroke-width="2.16"/>
<path d="M238.12 129.58C237.893 130.281 237.529 130.93 237.05 131.49C235.26 133.12 237.86 126.36 236.47 123.61C235.08 120.86 233.23 121.24 231.84 118.5M232.31 108.71C232.99 108.976 233.63 109.336 234.21 109.78C236.82 112.12 233.54 115.42 231.81 118.5C230.08 121.58 228.98 126.09 225.61 125.08C224.93 124.814 224.29 124.454 223.71 124.01L232.31 108.71ZM244.54 118.1C245.023 117.538 245.39 116.885 245.62 116.18C246.08 113.81 241.62 119.54 238.62 119.79C235.62 120.04 234.91 118.25 231.84 118.5L244.54 118.1Z" stroke="#243437" stroke-width="2.16"/>
<path d="M266.759 48.19C266.278 48.7497 265.911 49.3986 265.679 50.1C265.219 52.48 269.679 46.74 272.679 46.5C275.679 46.26 276.389 48.03 279.449 47.79M287.609 42.27C287.024 41.8282 286.382 41.4682 285.699 41.2C282.339 40.2 281.239 44.7 279.499 47.79C277.759 50.88 274.499 54.16 277.109 56.51C277.692 56.9482 278.331 57.3048 279.009 57.57L287.609 42.27ZM273.209 36.71C273.436 36.0057 273.8 35.3532 274.279 34.79C276.069 33.16 273.469 39.92 274.859 42.67C276.249 45.42 278.099 45.04 279.479 47.79L273.209 36.71Z" stroke="#243437" stroke-width="2.16"/>
<path d="M340.786 145.429L262.253 151.127C260.237 151.273 258.721 153.026 258.867 155.042L270.239 311.76C270.385 313.776 272.138 315.292 274.154 315.146L352.687 309.448C354.703 309.301 356.219 307.548 356.073 305.532L344.702 148.814C344.555 146.798 342.803 145.282 340.786 145.429Z" fill="#F2C94C" stroke="#F7F7F7" stroke-width="2.44"/>
<path d="M281.721 227.98L298.261 208.86" stroke="#FDFDFD" stroke-width="2.44"/>
<path d="M331.93 233.73L317.12 254.23" stroke="#FDFDFD" stroke-width="2.44"/>
<path d="M313.68 207.74L332.81 224.28" stroke="#FDFDFD" stroke-width="2.44"/>
<path d="M301.2 255.38L283.59 237.24" stroke="#FDFDFD" stroke-width="2.44"/>
<path d="M307.481 245.46C315.859 245.46 322.651 238.668 322.651 230.29C322.651 221.912 315.859 215.12 307.481 215.12C299.102 215.12 292.311 221.912 292.311 230.29C292.311 238.668 299.102 245.46 307.481 245.46Z" fill="#F7F7F7"/>
<path d="M267.49 154.45C267.49 154.45 265.04 158.98 265.57 161.97C266.17 165.37 270.76 165.51 271.01 168.97C271.26 172.43 266.63 176.67 266.63 176.67" stroke="#FDFDFD" stroke-width="2.44"/>
<path d="M347.51 306.12C347.51 306.12 344.43 301.99 344.51 298.96C344.61 295.5 349.13 294.7 348.88 291.26C348.63 287.82 343.45 284.26 343.45 284.26" stroke="#FDFDFD" stroke-width="2.44"/>
<path d="M336.12 149.47C336.12 149.47 339.19 153.6 339.12 156.63C339.02 160.09 334.5 160.88 334.75 164.33C335 167.78 340.19 171.33 340.19 171.33" stroke="#FDFDFD" stroke-width="2.44"/>
<path d="M278.831 311.1C278.831 311.1 281.271 306.57 280.751 303.58C280.151 300.18 275.561 300.04 275.311 296.58C275.061 293.12 279.681 288.88 279.681 288.88" stroke="#FDFDFD" stroke-width="2.44"/>
<path d="M302.8 286.25C302.695 287.08 302.757 287.923 302.98 288.73C303.98 291.26 304.61 283.09 307.35 280.95C310.09 278.81 311.81 280.08 314.55 277.95M318.74 267.69C317.919 267.635 317.094 267.695 316.29 267.87C312.49 269.01 314.29 273.96 314.55 277.94C314.81 281.92 313.8 287.07 317.72 287.66C318.545 287.713 319.372 287.653 320.18 287.48L318.74 267.69ZM301.72 271.41C301.495 270.607 301.434 269.767 301.54 268.94C302.21 266.28 303.97 274.28 306.99 276C310.01 277.72 311.53 276.22 314.55 277.94L301.72 271.41Z" stroke="#F7F7F7" stroke-width="2.44"/>
<path d="M312.601 189.2C312.821 190.004 312.882 190.843 312.781 191.67C312.111 194.32 310.341 186.33 307.321 184.6C304.301 182.87 302.791 184.39 299.771 182.67M294.141 173.14C294.945 172.967 295.77 172.906 296.591 172.96C300.521 173.54 299.481 178.69 299.771 182.67C300.061 186.65 301.831 191.6 298.031 192.75C297.223 192.925 296.395 192.985 295.571 192.93L294.141 173.14ZM311.521 174.36C311.625 173.533 311.564 172.693 311.341 171.89C310.291 169.36 309.701 177.53 306.961 179.67C304.221 181.81 302.511 180.53 299.771 182.67L311.521 174.36Z" stroke="#F7F7F7" stroke-width="2.44"/>
<path d="M335.992 266.873L323.048 398.417C322.881 400.11 324.118 401.618 325.811 401.784L391.733 408.271C393.426 408.438 394.933 407.2 395.1 405.507L408.044 273.963C408.211 272.27 406.973 270.763 405.281 270.596L339.359 264.109C337.666 263.943 336.159 265.18 335.992 266.873Z" fill="#9B51E0" stroke="#243437" stroke-width="2.16"/>
<path d="M343.85 337.59L357.35 354.03" stroke="#FDFDFD" stroke-width="2.16"/>
<path d="M386.199 333.84L374.189 316.28" stroke="#FDFDFD" stroke-width="2.16"/>
<path d="M370.29 355.3L386.73 341.81" stroke="#FDFDFD" stroke-width="2.16"/>
<path d="M360.82 314.97L345.62 329.85" stroke="#FDFDFD" stroke-width="2.16"/>
<path d="M365.56 348.97C372.607 348.97 378.32 343.257 378.32 336.21C378.32 329.163 372.607 323.45 365.56 323.45C358.513 323.45 352.8 329.163 352.8 336.21C352.8 343.257 358.513 348.97 365.56 348.97Z" fill="#243437"/>
<path d="M330.29 399.12C330.29 399.12 328.29 395.26 328.84 392.76C329.41 389.91 333.28 389.89 333.56 387C333.84 384.11 330.05 380.43 330.05 380.43" stroke="#FDFDFD" stroke-width="2.16"/>
<path d="M400.86 273.3C400.86 273.3 398.19 276.71 398.19 279.3C398.19 282.21 401.99 282.98 401.7 285.87C401.41 288.76 396.98 291.63 396.98 291.63" stroke="#FDFDFD" stroke-width="2.16"/>
<path d="M387.9 404.79C387.9 404.79 390.57 401.38 390.56 398.79C390.56 395.88 386.77 395.12 387.05 392.22C387.33 389.32 391.77 386.46 391.77 386.46" stroke="#FDFDFD" stroke-width="2.16"/>
<path d="M343.21 267.63C343.21 267.63 345.21 271.49 344.66 273.99C344.09 276.84 340.23 276.86 339.94 279.75C339.65 282.64 343.45 286.32 343.45 286.32" stroke="#FDFDFD" stroke-width="2.16"/>
<path d="M362.83 289.04C362.757 288.34 362.825 287.633 363.03 286.96C363.97 284.86 364.29 291.74 366.55 293.6C368.81 295.46 370.27 294.43 372.55 296.29M375.84 305C375.147 305.028 374.454 304.961 373.78 304.8C370.61 303.75 372.2 299.63 372.53 296.29C372.86 292.95 372.1 288.59 375.41 288.18C376.106 288.157 376.802 288.228 377.48 288.39L375.84 305ZM361.6 301.5C361.396 302.173 361.328 302.88 361.4 303.58C361.91 305.82 363.56 299.14 366.14 297.75C368.72 296.36 369.96 297.67 372.53 296.29L361.6 301.5Z" stroke="#243437" stroke-width="2.16"/>
<path d="M368.95 370.93C369.153 370.257 369.221 369.55 369.15 368.85C368.64 366.6 366.99 373.29 364.41 374.67C361.83 376.05 360.59 374.76 358.02 376.14M353.1 384C353.777 384.163 354.474 384.23 355.17 384.2C358.48 383.8 357.72 379.45 358.05 376.1C358.38 372.75 359.97 368.64 356.8 367.59C356.125 367.429 355.432 367.362 354.74 367.39L353.1 384ZM367.74 383.39C367.812 384.087 367.741 384.792 367.53 385.46C366.6 387.57 366.28 380.69 364.02 378.83C361.76 376.97 360.29 378 358.02 376.14L367.74 383.39Z" stroke="#243437" stroke-width="2.16"/>
</svg>
