<svg width="339" height="453" viewBox="0 0 339 453" fill="none" xmlns="http://www.w3.org/2000/svg">
<path d="M116.945 347.868C104.635 334.681 97.8021 317.306 97.831 299.266C97.831 259.729 130.328 227.56 169.86 227.948C183.224 228.058 196.285 231.94 207.539 239.147C212.741 242.429 218.874 243.919 225.001 243.391C231.129 242.863 236.916 240.345 241.479 236.221L320.491 165.425C325.152 161.248 328.879 156.135 331.431 150.42C333.983 144.705 335.302 138.517 335.302 132.258L335.302 22.0789C335.302 17.2363 333.379 12.592 329.954 9.16772C326.53 5.74346 321.886 3.81973 317.043 3.81973L21.2592 3.81973C18.8613 3.81973 16.487 4.29204 14.2717 5.20965C12.0564 6.12726 10.0435 7.47219 8.34799 9.16771C6.65247 10.8632 5.30751 12.8761 4.3899 15.0914C3.47229 17.3067 3.00001 19.6811 3.00001 22.0789L3 450" stroke="#243437" stroke-width="6" stroke-miterlimit="10" stroke-linecap="round"/>
</svg>
