<svg width="339" height="453" viewBox="0 0 339 453" fill="none" xmlns="http://www.w3.org/2000/svg">
<path d="M223.404 90.2949C235.714 103.482 242.548 120.858 242.518 138.897C242.518 178.429 210.021 210.599 170.489 210.215C157.63 210.107 145.042 206.508 134.068 199.804C128.641 196.439 122.232 195.02 115.892 195.779C109.552 196.539 103.66 199.432 99.1816 203.984L17.8365 287.575C13.1715 291.751 9.4391 296.864 6.88271 302.58C4.32631 308.295 3.00332 314.486 3 320.747L3 430.921C3 435.764 4.92373 440.408 8.34798 443.832C11.7722 447.256 16.4165 449.18 21.2592 449.18L317.043 449.18C321.886 449.18 326.53 447.256 329.954 443.832C333.379 440.408 335.302 435.764 335.302 430.921L335.302 2.99994" stroke="#13876F" stroke-width="6" stroke-miterlimit="10" stroke-linecap="round"/>
</svg>
