<svg width="97" height="96" viewBox="0 0 97 96" fill="none" xmlns="http://www.w3.org/2000/svg">
<rect x="0.5" width="96" height="96" rx="5" fill="#D78D8D"/>
<circle cx="23" cy="24.5" r="8" fill="#C4C4C4"/>
<circle cx="71" cy="24.5" r="8" fill="#C4C4C4"/>
<path d="M75.5735 72.5C79.1228 72.5 80.9482 75.3693 77.7539 76.9163C76.2934 77.6236 74.4764 78.2798 72.3345 78.864C66.1458 80.5518 57.7521 81.5 49 81.5C40.2479 81.5 31.8542 80.5518 25.6655 78.864C23.5236 78.2798 21.7066 77.6236 20.2461 76.9163C17.0518 75.3693 18.8772 72.5 22.4265 72.5C25.9757 72.5 30.3914 75.0343 33.7771 76.0993C34.0892 76.1974 34.4148 76.2929 34.7539 76.3853C38.5322 77.4158 43.6567 77.9947 49 77.9947C54.3433 77.9947 59.4678 77.4158 63.2461 76.3853C63.5852 76.2929 63.9108 76.1974 64.2229 76.0993C67.6086 75.0343 72.0243 72.5 75.5735 72.5Z" fill="#C4C4C4"/>
</svg>
