<svg width="261" height="187" viewBox="0 0 261 187" fill="none" xmlns="http://www.w3.org/2000/svg">
<rect x="1.87635" y="26.9914" width="86.0601" height="164.446" rx="3.65981" transform="rotate(-16.595 1.87635 26.9914)" fill="#27AE60" stroke="#E2C781" stroke-width="2.43987"/>
<line y1="-1.21994" x2="25.2857" y2="-1.21994" transform="matrix(0.475701 -0.879607 0.880374 0.47428 42.029 97.3814)" stroke="white" stroke-width="2.43987"/>
<line y1="-1.21994" x2="25.2857" y2="-1.21994" transform="matrix(-0.397228 0.91772 -0.91836 -0.395746 90.1014 91.1127)" stroke="white" stroke-width="2.43987"/>
<line y1="-1.21994" x2="25.2857" y2="-1.21994" transform="matrix(0.879607 0.475701 -0.477121 0.878838 67.2131 71.2193)" stroke="white" stroke-width="2.43987"/>
<line y1="-1.21994" x2="25.2857" y2="-1.21994" transform="matrix(-0.8348 -0.550554 0.551901 -0.83391 66.5545 118.342)" stroke="white" stroke-width="2.43987"/>
<circle cx="66.5974" cy="93.5001" r="15.1714" transform="rotate(-16.595 66.5974 93.5001)" fill="#E2C781"/>
<path d="M11.2072 28.0596C11.2072 28.0596 9.79918 33.0154 10.954 35.8176C12.2708 39.0126 16.7817 38.1576 17.7687 41.4693C18.7556 44.7811 15.1596 49.9295 15.1596 49.9295" stroke="white" stroke-width="2.43987"/>
<path d="M122.033 158.927C122.033 158.927 118.142 155.55 117.574 152.573C116.927 149.179 121.17 147.425 120.183 144.113C119.196 140.801 113.369 138.461 113.369 138.461" stroke="white" stroke-width="2.43987"/>
<path d="M77.1507 8.40724C77.1507 8.40724 81.0419 11.7838 81.6094 14.7611C82.2565 18.1556 78.0134 19.9095 79.0004 23.2212C79.9873 26.5329 85.815 28.8729 85.815 28.8729" stroke="white" stroke-width="2.43987"/>
<path d="M56.044 178.593C56.044 178.593 57.452 173.637 56.2971 170.835C54.9804 167.64 50.4694 168.495 49.4825 165.183C48.4955 161.871 52.0916 156.723 52.0916 156.723" stroke="white" stroke-width="2.43987"/>
<path d="M85.6631 127.595C85.6631 127.595 84.1419 127.829 83.3017 128.299C79.8373 130.235 82.6332 134.683 83.7739 138.511C84.9145 142.339 85.0097 147.592 88.969 147.316C89.9293 147.249 91.3305 146.612 91.3305 146.612M69.8417 134.9C69.8417 134.9 69.1041 133.49 69.1333 132.523C69.2158 129.786 72.6615 137.214 75.9814 138.246C79.3013 139.279 80.4543 137.48 83.7743 138.512M74.092 149.162C74.092 149.162 74.2463 150.745 74.8004 151.539C76.3676 153.784 75.1848 145.681 77.3981 143C79.6114 140.319 81.5607 141.193 83.774 138.512" stroke="#E2C781" stroke-width="2.43987"/>
<path d="M41.2578 40.5668C41.2578 40.5668 42.659 39.9299 43.6193 39.863C47.5786 39.5871 47.6738 44.8401 48.8144 48.6677C49.9551 52.4952 52.751 56.9433 49.2867 58.8798C48.4464 59.3495 46.9252 59.5836 46.9252 59.5836M58.4969 38.0189C58.4969 38.0189 58.3426 36.4355 57.7885 35.6418C56.2213 33.3967 57.4041 41.4994 55.1908 44.1805C52.9775 46.8616 51.0281 45.9878 48.8148 48.669M62.7472 52.2808C62.7472 52.2808 63.4848 53.6903 63.4556 54.6579C63.3731 57.3946 59.9274 49.9663 56.6075 48.9342C53.2876 47.902 52.1345 49.7004 48.8146 48.6683" stroke="#E2C781" stroke-width="2.43987"/>
<rect x="-1.34624" y="0.719269" width="76.1379" height="145.486" rx="3.23785" transform="matrix(-0.956888 -0.290456 -0.290456 0.956888 258.216 33.8711)" fill="#27AE60" stroke="#4D15EA" stroke-width="2.15857"/>
<line y1="-1.07928" x2="22.3704" y2="-1.07928" transform="matrix(-0.471239 -0.882006 -0.882766 0.469814 223.457 97.0439)" stroke="white" stroke-width="2.15857"/>
<line y1="-1.07928" x2="22.3704" y2="-1.07928" transform="matrix(0.392574 0.919721 0.920353 -0.391088 180.955 91.2826)" stroke="white" stroke-width="2.15857"/>
<line y1="-1.07928" x2="22.3704" y2="-1.07928" transform="matrix(-0.882006 0.471239 0.472662 0.881244 201.294 73.7856)" stroke="white" stroke-width="2.15857"/>
<line y1="-1.07928" x2="22.3704" y2="-1.07928" transform="matrix(0.837578 -0.546317 -0.547669 -0.836695 201.665 115.477)" stroke="white" stroke-width="2.15857"/>
<circle r="13.4222" transform="matrix(-0.956888 -0.290456 -0.290456 0.956888 201.738 93.5001)" fill="#4D15EA"/>
<path d="M251.035 35.8535C251.035 35.8535 252.259 40.2442 251.224 42.7181C250.045 45.5388 246.058 44.7622 245.17 47.6876C244.282 50.6131 247.44 55.184 247.44 55.184" stroke="white" stroke-width="2.15857"/>
<path d="M152.402 151.134C152.402 151.134 155.859 148.165 156.375 145.533C156.962 142.533 153.216 140.962 154.104 138.037C154.992 135.111 160.159 133.067 160.159 133.067" stroke="white" stroke-width="2.15857"/>
<path d="M192.783 18.1716C192.783 18.1716 189.326 21.1414 188.81 23.7728C188.223 26.7731 191.969 28.3437 191.081 31.2692C190.193 34.1946 185.026 36.2387 185.026 36.2387" stroke="white" stroke-width="2.15857"/>
<path d="M210.694 168.828C210.694 168.828 209.47 164.438 210.504 161.964C211.684 159.143 215.671 159.92 216.559 156.994C217.447 154.069 214.288 149.498 214.288 149.498" stroke="white" stroke-width="2.15857"/>
<path d="M184.718 123.578C184.718 123.578 186.063 123.792 186.804 124.211C189.861 125.94 187.367 129.863 186.341 133.244C185.314 136.625 185.207 141.272 181.705 141.01C180.856 140.947 179.619 140.377 179.619 140.377M198.683 130.112C198.683 130.112 199.342 128.868 199.32 128.012C199.259 125.59 196.178 132.147 193.236 133.045C190.294 133.943 189.282 132.347 186.34 133.245M194.859 142.71C194.859 142.71 194.715 144.11 194.221 144.81C192.825 146.789 193.907 139.626 191.961 137.244C190.015 134.862 188.287 135.626 186.341 133.245" stroke="#4D15EA" stroke-width="2.15857"/>
<path d="M224.393 46.7838C224.393 46.7838 223.157 46.2141 222.307 46.1506C218.806 45.8888 218.698 50.5357 217.672 53.9168C216.646 57.2979 214.152 61.2206 217.208 62.9493C217.95 63.3686 219.294 63.5825 219.294 63.5825M209.154 44.4525C209.154 44.4525 209.297 43.0524 209.791 42.3526C211.188 40.3734 210.105 47.5365 212.051 49.9184C213.997 52.3003 215.725 51.536 217.672 53.9179M205.329 57.0508C205.329 57.0508 204.671 58.2945 204.692 59.1507C204.753 61.5722 207.835 55.0159 210.776 54.1176C213.718 53.2194 214.73 54.8155 217.672 53.9173" stroke="#4D15EA" stroke-width="2.15857"/>
</svg>
