<svg width="12" height="12" viewBox="0 0 12 12" fill="none" xmlns="http://www.w3.org/2000/svg">
<g clip-path="url(#clip0_864_11280)">
<g clip-path="url(#clip1_864_11280)">
<path d="M11.6422 10.5775C11.0496 11.1727 10.8146 11.4064 10.2219 11.9999C9.39938 11.1622 8.5472 10.3405 7.69755 9.47557C7.23188 9.94124 6.6337 10.5369 6.19639 10.9763C6.01774 10.7985 5.87042 10.6491 5.67865 10.4586C6.06219 10.0776 6.61253 9.52214 7.01132 9.12589C6.9855 9.10388 0.464364 3.68301 0.464364 3.68301L0.1875 0.582886L3.32487 0.821226L6.37758 4.49667L5.685 5.18967L7.37158 6.87838L7.90922 6.34074L8.76564 7.37157C9.16909 6.96474 9.72789 6.41313 10.1064 6.03085C10.2842 6.2095 10.4383 6.36275 10.6241 6.5486C10.1783 6.99522 9.58269 7.59255 9.11998 8.05399C9.96666 8.88628 10.8032 9.7537 11.6422 10.5775Z" fill="#F7F7F7"/>
<path d="M7.37378 5.83193L6.73242 5.18973L9.45873 2.46172L12.1863 5.18973L11.5454 5.83109L9.45873 3.7436L7.37082 5.83109L7.37378 5.83193ZM7.37378 3.37021L6.73242 2.72758L9.45873 0L12.1863 2.72758L11.5466 3.36936L9.45873 1.28187L7.37082 3.36936L7.37378 3.37021Z" fill="#F7F7F7"/>
</g>
</g>
<defs>
<clipPath id="clip0_864_11280">
<rect width="12" height="12" fill="white"/>
</clipPath>
<clipPath id="clip1_864_11280">
<rect width="12" height="12" fill="white" transform="translate(0.1875)"/>
</clipPath>
</defs>
</svg>
