<svg width="64" height="64" viewBox="0 0 64 64" fill="none" xmlns="http://www.w3.org/2000/svg">
<g clip-path="url(#clip0_885_12029)">
<path d="M62.0919 56.4137C58.931 59.5882 57.6779 60.8345 54.517 64C50.13 59.5318 45.5851 55.1494 41.0536 50.5367C38.57 53.0202 35.3797 56.197 33.0474 58.5406C32.0946 57.5923 31.3089 56.7953 30.2861 55.7793C32.3317 53.7473 35.2668 50.785 37.3937 48.6717C37.256 48.5543 2.47661 19.643 2.47661 19.643L1 3.10901L17.7327 4.38016L34.0138 23.9825L30.32 27.6785L39.3151 36.685L42.1825 33.8175L46.7501 39.3153C48.9018 37.1456 51.8821 34.2036 53.9006 32.1648C54.8489 33.1176 55.6707 33.9349 56.6619 34.9261C54.2844 37.3081 51.1077 40.4939 48.6399 42.9549C53.1555 47.3938 57.6169 52.02 62.0919 56.4137Z" fill="#F7F7F7"/>
<path d="M39.3263 31.1036L35.9058 27.6785L50.4461 13.1292L64.9932 27.6785L61.5749 31.0991L50.4461 19.9659L39.3105 31.0991L39.3263 31.1036ZM39.3263 17.9745L35.9058 14.5471L50.4461 0L64.9932 14.5471L61.5816 17.9699L50.4461 6.83666L39.3105 17.9699L39.3263 17.9745Z" fill="#F7F7F7"/>
</g>
<defs>
<clipPath id="clip0_885_12029">
<rect width="64" height="64" fill="white"/>
</clipPath>
</defs>
</svg>
