<svg width="16" height="17" viewBox="0 0 16 17" fill="none" xmlns="http://www.w3.org/2000/svg">
<path d="M6.97461 12.02H1.02148V10.731L3.76367 7.84814C4.43945 7.07861 4.77734 6.46729 4.77734 6.01416C4.77734 5.64697 4.69727 5.36768 4.53711 5.17627C4.37695 4.98486 4.14453 4.88916 3.83984 4.88916C3.53906 4.88916 3.29492 5.01807 3.10742 5.27588C2.91992 5.52979 2.82617 5.84814 2.82617 6.23096H0.845703C0.845703 5.70752 0.976562 5.2251 1.23828 4.78369C1.5 4.33838 1.86328 3.99072 2.32812 3.74072C2.79297 3.49072 3.3125 3.36572 3.88672 3.36572C4.80859 3.36572 5.51758 3.57861 6.01367 4.00439C6.51367 4.43018 6.76367 5.0415 6.76367 5.83838C6.76367 6.17432 6.70117 6.50244 6.57617 6.82275C6.45117 7.13916 6.25586 7.47314 5.99023 7.82471C5.72852 8.17236 5.30469 8.63916 4.71875 9.2251L3.61719 10.4966H6.97461V12.02ZM11.2754 6.32471L12.6699 3.48877H15.0195L12.6348 7.71924L15.084 12.02H12.7109L11.2754 9.13135L9.83984 12.02H7.47266L9.91602 7.71924L7.53711 3.48877H9.88086L11.2754 6.32471Z" fill="#243437"/>
</svg>
