<svg width="15" height="10" viewBox="0 0 15 10" fill="none" xmlns="http://www.w3.org/2000/svg">
<path d="M6.66797 9.02002H0.714844V7.73096L3.45703 4.84814C4.13281 4.07861 4.4707 3.46729 4.4707 3.01416C4.4707 2.64697 4.39062 2.36768 4.23047 2.17627C4.07031 1.98486 3.83789 1.88916 3.5332 1.88916C3.23242 1.88916 2.98828 2.01807 2.80078 2.27588C2.61328 2.52979 2.51953 2.84814 2.51953 3.23096H0.539062C0.539062 2.70752 0.669922 2.2251 0.931641 1.78369C1.19336 1.33838 1.55664 0.990723 2.02148 0.740723C2.48633 0.490723 3.00586 0.365723 3.58008 0.365723C4.50195 0.365723 5.21094 0.578613 5.70703 1.00439C6.20703 1.43018 6.45703 2.0415 6.45703 2.83838C6.45703 3.17432 6.39453 3.50244 6.26953 3.82275C6.14453 4.13916 5.94922 4.47314 5.68359 4.82471C5.42188 5.17236 4.99805 5.63916 4.41211 6.2251L3.31055 7.49658H6.66797V9.02002ZM10.9688 3.32471L12.3633 0.48877H14.7129L12.3281 4.71924L14.7773 9.02002H12.4043L10.9688 6.13135L9.5332 9.02002H7.16602L9.60938 4.71924L7.23047 0.48877H9.57422L10.9688 3.32471Z" fill="#FDFDFD"/>
</svg>
