<svg width="64" height="64" viewBox="0 0 64 64" fill="none" xmlns="http://www.w3.org/2000/svg">
<g clip-path="url(#clip0_879_11303)">
<path d="M27.6881 63H1.76543V53.765L13.7062 33.1123C16.6489 27.5994 18.1202 23.2197 18.1202 19.9735C18.1202 17.343 17.7714 15.3421 17.0741 13.9708C16.3767 12.5996 15.3646 11.914 14.0379 11.914C12.7281 11.914 11.665 12.8374 10.8485 14.6845C10.0321 16.5034 9.62387 18.7842 9.62387 21.5266H1C1 17.7768 1.56982 14.3206 2.70946 11.1584C3.84911 7.96819 5.431 5.47752 7.45515 3.68645C9.47929 1.89537 11.7416 1 14.242 1C18.2562 1 21.3435 2.52506 23.5038 5.57549C25.6809 8.62577 26.7696 13.0053 26.7696 18.7143C26.7696 21.121 26.4974 23.4716 25.9531 25.7664C25.4087 28.0332 24.5583 30.4259 23.4016 32.9444C22.262 35.4351 20.4165 38.7793 17.865 42.977L13.0683 52.086H27.6881V63ZM46.4156 22.1983L52.4881 1.88142H62.7193L52.335 32.1889L63 63H52.6666L46.4156 42.3053L40.1646 63H29.8568L40.4963 32.1889L30.1375 1.88142H40.3432L46.4156 22.1983Z" fill="#F7F7F7"/>
</g>
<defs>
<clipPath id="clip0_879_11303">
<rect width="64" height="64" fill="white"/>
</clipPath>
</defs>
</svg>
