<svg width="62" height="62" viewBox="0 0 62 62" fill="none" xmlns="http://www.w3.org/2000/svg">
<path d="M26.6881 62H0.76543V52.765L12.7062 32.1123C15.6489 26.5994 17.1202 22.2197 17.1202 18.9735C17.1202 16.343 16.7714 14.3421 16.0741 12.9708C15.3767 11.5996 14.3646 10.914 13.0379 10.914C11.7281 10.914 10.665 11.8374 9.84855 13.6845C9.0321 15.5034 8.62387 17.7842 8.62387 20.5266H0C0 16.7768 0.569824 13.3206 1.70946 10.1584C2.84911 6.96819 4.431 4.47752 6.45515 2.68645C8.47929 0.895374 10.7416 0 13.242 0C17.2562 0 20.3435 1.52506 22.5038 4.57549C24.6809 7.62577 25.7696 12.0053 25.7696 17.7143C25.7696 20.121 25.4974 22.4716 24.9531 24.7664C24.4087 27.0332 23.5583 29.4259 22.4016 31.9444C21.262 34.4351 19.4165 37.7793 16.865 41.977L12.0683 51.086H26.6881V62ZM45.4156 21.1983L51.4881 0.881425H61.7193L51.335 31.1889L62 62H51.6666L45.4156 41.3053L39.1646 62H28.8568L39.4963 31.1889L29.1375 0.881425H39.3432L45.4156 21.1983Z" fill="#F7F7F7"/>
</svg>
