<svg width="18" height="18" viewBox="0 0 18 18" fill="none" xmlns="http://www.w3.org/2000/svg">
<path d="M8.9999 10.8C10.9881 10.8 12.5999 9.1882 12.5999 7.20001C12.5999 5.21178 10.9881 3.60001 8.9999 3.60001C7.01168 3.60001 5.3999 5.21178 5.3999 7.20001C5.3999 9.1882 7.01168 10.8 8.9999 10.8ZM8.9999 5.40001C9.99404 5.40001 10.7999 6.20589 10.7999 7.20001C10.7999 8.19412 9.99404 9.00001 8.9999 9.00001C8.00579 9.00001 7.1999 8.19412 7.1999 7.20001C7.1999 6.20589 8.00579 5.40001 8.9999 5.40001Z" fill="#FDFDFD"/>
<path d="M1.8 18C0.805888 18 0 17.1941 0 16.2V1.8C0 0.805888 0.805888 0 1.8 0H16.2C17.1941 0 18 0.805888 18 1.8V16.2C18 17.1941 17.1941 18 16.2 18H1.8ZM1.8 1.8V16.2H4.5C4.5 13.7147 6.51472 11.7 9 11.7C11.4853 11.7 13.5 13.7147 13.5 16.2H16.2V1.8H1.8ZM11.7 16.2C11.7 14.7088 10.4912 13.5 9 13.5C7.50883 13.5 6.3 14.7088 6.3 16.2H11.7Z" fill="#FDFDFD"/>
</svg>
