<svg width="26" height="26" viewBox="0 0 26 26" fill="none" xmlns="http://www.w3.org/2000/svg">
<rect width="26" height="26" rx="13" fill="#F2C94C"/>
<path d="M6.57068 5.66035C6.57068 5.66035 7.69849 5.50492 8.39334 5.66035C11.2582 6.30121 10.216 10.045 10.216 12.9993C10.216 15.9535 11.2582 19.6973 8.39334 20.3382C7.69849 20.4936 6.57068 20.3382 6.57068 20.3382M19.3293 7.49609C19.3293 7.49609 19.5544 6.3411 19.3293 5.66136C18.6926 3.73878 17.8193 9.73247 15.684 11.1655C13.5486 12.5985 12.3514 11.5673 10.216 13.0003M19.3293 18.5039C19.3293 18.5039 19.5544 19.6589 19.3293 20.3386C18.6926 22.2612 17.8193 16.2675 15.684 14.8345C13.5486 13.4015 12.3514 14.4327 10.216 12.9997" stroke="white" stroke-width="1.80474"/>
</svg>
