<svg width="16" height="17" viewBox="0 0 16 17" fill="none" xmlns="http://www.w3.org/2000/svg">
<path fill-rule="evenodd" clip-rule="evenodd" d="M0 8.5C0 4.08172 3.58172 0.5 8 0.5C12.4183 0.5 16 4.08172 16 8.5C16 12.9183 12.4183 16.5 8 16.5C3.58172 16.5 0 12.9183 0 8.5ZM8.91429 4.84286C8.91429 5.3478 8.50495 5.75714 8 5.75714C7.49505 5.75714 7.08571 5.3478 7.08571 4.84286C7.08571 4.33791 7.49505 3.92857 8 3.92857C8.50495 3.92857 8.91429 4.33791 8.91429 4.84286ZM8 7.35714C8.37871 7.35714 8.68571 7.66415 8.68571 8.04286V12.6143C8.68571 12.993 8.37871 13.3 8 13.3C7.62129 13.3 7.31429 12.993 7.31429 12.6143V8.04286C7.31429 7.66415 7.62129 7.35714 8 7.35714Z" fill="#DB4E4E"/>
</svg>
