<svg width="20" height="15" viewBox="0 0 20 15" fill="none" xmlns="http://www.w3.org/2000/svg">
<path d="M10 14.5C8.35987 14.5204 6.7367 14.1664 5.254 13.465C4.10469 12.9042 3.07265 12.1297 2.213 11.183C1.30243 10.2041 0.585467 9.06164 0.1 7.81598L0 7.49998L0.105 7.18398C0.590815 5.93941 1.30624 4.79725 2.214 3.81698C3.07334 2.87029 4.10504 2.09584 5.254 1.53498C6.73671 0.833567 8.35988 0.47959 10 0.499979C11.6401 0.479625 13.2633 0.833601 14.746 1.53498C15.8953 2.09571 16.9274 2.87017 17.787 3.81698C18.6993 4.79453 19.4165 5.93734 19.9 7.18398L20 7.49998L19.895 7.81598C18.3262 11.8998 14.3742 14.5693 10 14.5ZM10 2.49998C6.59587 2.39331 3.47142 4.37507 2.117 7.49998C3.4712 10.6251 6.59579 12.6069 10 12.5C13.4041 12.6064 16.5284 10.6247 17.883 7.49998C16.5304 4.37356 13.4047 2.39106 10 2.49998ZM10 10.5C8.55733 10.5095 7.30937 9.49734 7.02097 8.08375C6.73256 6.67017 7.48427 5.25 8.81538 4.69364C10.1465 4.13728 11.6852 4.60011 12.4885 5.79849C13.2919 6.99686 13.1354 8.59606 12.115 9.61598C11.5563 10.1812 10.7948 10.4995 10 10.5Z" fill="#FDFDFD"/>
</svg>
