<svg width="30" height="30" viewBox="0 0 30 30" fill="none" xmlns="http://www.w3.org/2000/svg">
<g clip-path="url(#clip0_687:8252)">
<path d="M14.9915 3.95462C8.45238 -1.76475 0.138028 3.26045 0.00169066 10.0729C-0.0330528 11.8091 0.46812 13.5003 1.46572 15.0594H7.93187L9.08198 13.1425C9.41594 12.5859 10.2241 12.568 10.577 13.1228L13.0036 16.936L16.5408 9.46875C16.8493 8.81718 17.7686 8.79649 18.1088 9.42832L21.1409 15.0594H28.5172C33.9814 6.51942 23.1824 -3.20939 14.9915 3.95462Z" fill="#243437"/>
<path d="M19.8422 16.3549L17.3852 11.7919L13.9108 19.1267C13.6152 19.7507 12.7458 19.8049 12.3751 19.2223L9.85755 15.2662L9.18301 16.3904C9.02418 16.6551 8.73814 16.817 8.42944 16.817H2.85596C3.03067 16.9999 2.09951 16.0706 14.3716 28.2791C14.7143 28.6201 15.2684 28.6202 15.6112 28.2791C27.6944 16.2584 26.9524 16.9995 27.1268 16.817H20.616C20.2927 16.8171 19.9955 16.6396 19.8422 16.3549Z" fill="#243437"/>
</g>
<defs>
<clipPath id="clip0_687:8252">
<rect width="30" height="30" fill="white"/>
</clipPath>
</defs>
</svg>
