<svg width="12" height="12" viewBox="0 0 12 12" fill="none" xmlns="http://www.w3.org/2000/svg">
<g clip-path="url(#clip0_862_11771)">
<path d="M10.7035 6.23198C9.88118 8.61285 6.95279 11.2575 5.46093 12C3.71411 11.1338 0 7.65483 0 5.04621C0 2.87278 1.74767 2.00366 3.05863 2.00366C4.3696 2.00366 5.46221 3.3067 5.46221 3.3067C5.55214 3.20303 5.64747 3.10411 5.74781 3.01036L6.69868 3.95822L5.46434 5.18845L7.16008 6.87715L9.25847 4.79009L10.7035 6.23198Z" fill="#F7F7F7"/>
<path d="M7.16047 5.83193L6.51562 5.18973L9.25673 2.46172L11.9991 5.18973L11.3547 5.83109L9.25673 3.7436L7.15749 5.83109L7.16047 5.83193ZM7.16047 3.37021L6.51562 2.72758L9.25673 0L11.9991 2.72758L11.356 3.36936L9.25673 1.28187L7.15749 3.36936L7.16047 3.37021Z" fill="#F7F7F7"/>
</g>
<defs>
<clipPath id="clip0_862_11771">
<rect width="12" height="12" fill="white"/>
</clipPath>
</defs>
</svg>
