<svg width="64" height="64" viewBox="0 0 64 64" fill="none" xmlns="http://www.w3.org/2000/svg">
<g clip-path="url(#clip0_885_12095)">
<path d="M57.0854 33.2373C52.6996 45.9353 37.0815 60.0398 29.125 64.0001C19.8086 59.3806 0 40.8258 0 26.9132C0 15.3216 9.3209 10.6863 16.3127 10.6863C23.3045 10.6863 29.1318 17.6358 29.1318 17.6358C29.6114 17.0829 30.1198 16.5554 30.655 16.0554L35.7263 21.1106L29.1431 27.6718L38.1871 36.6782L49.3785 25.5472L57.0854 33.2373Z" fill="#F7F7F7"/>
<path d="M38.1872 31.1036L34.748 27.6785L49.3673 13.1292L63.9933 27.6785L60.5565 31.0991L49.3673 19.9659L38.1713 31.0991L38.1872 31.1036ZM38.1872 17.9745L34.748 14.5471L49.3673 0L63.9933 14.5471L60.5633 17.9699L49.3673 6.83666L38.1713 17.9699L38.1872 17.9745Z" fill="#F7F7F7"/>
</g>
<defs>
<clipPath id="clip0_885_12095">
<rect width="64" height="64" fill="white"/>
</clipPath>
</defs>
</svg>
