<svg width="16" height="19" viewBox="0 0 16 19" fill="none" xmlns="http://www.w3.org/2000/svg">
<path d="M15 18.9999H1C0.447715 18.9999 0 18.5522 0 17.9999V8.41386C0 8.14867 0.105451 7.89436 0.293 7.70686L7.293 0.706861C7.48057 0.519084 7.73509 0.413574 8.0005 0.413574C8.26591 0.413574 8.52043 0.519084 8.708 0.706861L15.708 7.70686C15.8957 7.89414 16.0009 8.14868 16 8.41386V17.9999C16 18.5522 15.5523 18.9999 15 18.9999ZM6 11.9999H10V16.9999H14V8.82786L8 2.82786L2 8.82786V16.9999H6V11.9999Z" fill="#243437"/>
</svg>
