<svg width="15" height="18" viewBox="0 0 15 18" fill="none" xmlns="http://www.w3.org/2000/svg">
<path d="M0.570801 1.66032C0.570801 1.66032 1.69862 1.50489 2.39346 1.66032C5.25836 2.30118 4.21611 6.045 4.21611 8.99923C4.21611 11.9535 5.25836 15.6973 2.39346 16.3381C1.69862 16.4936 0.570801 16.3381 0.570801 16.3381M13.3294 3.49606C13.3294 3.49606 13.5545 2.34107 13.3294 1.66133C12.6927 -0.261255 11.8195 5.73244 9.68409 7.16545C7.54873 8.59845 6.35148 7.56724 4.21611 9.00024M13.3294 14.5039C13.3294 14.5039 13.5545 15.6589 13.3294 16.3386C12.6927 18.2612 11.8195 12.2675 9.68409 10.8345C7.54873 9.40149 6.35148 10.4327 4.21611 8.9997" stroke="#F7F7F7" stroke-width="1.80474"/>
</svg>
