<svg width="150" height="60" viewBox="0 0 150 60" fill="none" xmlns="http://www.w3.org/2000/svg">
<g clip-path="url(#clip0_444:4829)">
<g clip-path="url(#clip1_444:4829)">
<path d="M7.32018 54.1558C2.73787 51.1958 -1.63418 47.9228 -5.76465 44.3602C-10.7235 39.7982 -7.41225 19.0962 -7.41225 19.0962C-10.0086 19.4728 -12.4745 20.4728 -14.5985 22.0105C-16.7225 23.5482 -18.4413 25.5777 -19.6076 27.925C-20.3008 20.1813 -19.2048 12.383 -16.4041 5.1314C-13.6034 -2.12019 -9.17278 -8.63135 -3.45384 -13.9001C19.5197 -35.0132 50.4242 -30.1191 58.8362 -28.0911C58.8362 -28.0911 60.5067 -30.8977 52.1995 -33.0504C55.0632 -34.766 58.3374 -35.6783 61.6774 -35.6914C65.0174 -35.7044 68.2997 -34.8178 71.1788 -33.1247C81.756 -27.4258 80.4397 -11.4339 80.4397 -11.4339C80.4397 -11.4339 92.4387 -16.4115 104.165 -12.0686C104.165 -12.0686 100.458 -5.18367 96.1285 -3.79721C101.988 -2.64232 107.393 0.16998 111.701 4.30498C111.701 4.30498 101.265 17.9103 92.3405 17.6626C83.4155 17.4148 7.32018 54.1558 7.32018 54.1558Z" fill="#782B2B"/>
<path d="M48.222 5.03616C48.222 5.03616 38.0456 35.3283 30.1662 34.2629C22.2869 33.1974 18.0869 44.2441 18.0869 44.2441C18.0869 44.2441 14.0738 36.4601 7.63926 38.6342C1.20475 40.8084 2.4002 55.3206 5.68795 60.6577C8.97571 65.9948 15.3702 68.0268 17.4796 64.0555C17.4796 64.0555 26.4545 77.2287 33.3763 84.1294C40.2981 91.0302 72.0674 100.339 77.3992 100.258C82.731 100.176 97.265 63.1345 98.6153 56.5344C99.9656 49.9343 92.1808 17.8579 92.1808 17.8579C92.1808 17.8579 63.3029 17.7137 48.1172 5.16087" fill="#FFB897"/>
<path d="M83.3655 41.8114C83.4761 41.0686 86.0194 38.5823 91.2491 39.5728C96.4787 40.5633 94.8503 46.2741 92.5713 48.5612C90.2922 50.8482 82.0001 50.318 83.3701 41.7955" fill="white"/>
<path d="M94.0867 35.4669C96.04 36.9421 97.9929 40.9306 96.019 40.7233C94.0451 40.516 84.4301 41.8254 83.0533 39.8449C81.6764 37.8644 81.2172 34.2547 83.6719 34.0496C86.8954 33.8079 92.172 34.0372 94.0072 35.444" fill="#782B2B"/>
<path d="M65.5648 39.3501C65.4936 38.5205 62.3289 34.2517 55.4304 35.2249C48.532 36.198 49.9726 41.6054 52.7419 44.5552C55.5111 47.505 66.4745 48.7533 65.5648 39.3501Z" fill="white"/>
<path d="M55.2465 28.1482C53.0645 28.4835 46.9324 31.8809 48.3912 32.68C49.8499 33.4791 66.8458 40.4078 68.8814 39.3245C70.917 38.2412 74.1623 33.857 72.1463 33.0179C69.7782 32.0256 57.292 27.808 55.2465 28.1482Z" fill="#782B2B"/>
<path d="M65.8633 40.2282C65.8767 39.6234 65.7324 39.0254 65.4448 38.4928C65.1571 37.9603 64.7359 37.5114 64.2224 37.1904C63.8335 36.8887 63.3437 36.7475 62.8539 36.7961L62.6311 36.7319C62.1516 36.7416 61.6889 36.9099 61.3155 37.2103C60.942 37.5107 60.6788 37.9264 60.5671 38.3923C60.1348 39.179 59.9424 40.0751 60.0139 40.97C60.1972 42.6066 61.4513 44.5345 63.3468 44.1167C64.1103 43.8034 64.7599 43.2648 65.2087 42.5729C65.6575 41.8809 65.8843 41.0685 65.8587 40.2441" fill="#782B2B"/>
<path d="M93.7762 43.0036C93.8363 42.462 93.7615 41.9138 93.5586 41.4079C93.3556 40.9019 93.0307 40.4538 92.6127 40.1033C92.4704 39.9687 92.2979 39.8702 92.1096 39.8159C91.9213 39.7617 91.7228 39.7533 91.5306 39.7915L91.3556 39.7411C90.92 39.8215 90.5188 40.0312 90.2045 40.343C89.8903 40.6547 89.6774 41.054 89.5939 41.4886C89.1913 42.2839 88.9904 43.1659 89.0089 44.0572C89.0695 45.6412 89.9689 47.4841 91.5349 46.9541C92.2135 46.54 92.7753 45.96 93.1674 45.2689C93.5595 44.5778 93.769 43.7982 93.7762 43.0036Z" fill="#782B2B"/>
<path d="M83.9749 54.8291C82.9209 52.9244 79.4253 52.6746 77.4509 52.7082C74.9514 52.7774 72.5215 53.5442 70.4363 54.9217C70.1825 55.0899 69.9667 55.3091 69.8027 55.5655C68.1859 56.5112 68.4781 59.5047 70.7551 59.4378C73.0321 59.3709 86.8875 60.0925 83.9749 54.8291Z" fill="#FF917E"/>
</g>
<g clip-path="url(#clip2_444:4829)">
<path d="M127.962 28.9392C127.962 28.9392 122.132 29.1201 114.89 37.2325C107.648 45.3448 100.937 54.0184 69.7635 57.5349C38.5899 61.0515 5.75025 72.9089 0.0192396 82.1286C-5.71177 91.3483 -6.9347 98.9764 3.14366 107.428C13.222 115.879 41.8283 104.564 62.5134 91.774C83.1985 78.9836 110.566 62.6529 114.922 64.0359C119.278 65.4189 139.493 63.2899 146.051 58.7045C152.608 54.1191 127.953 28.9543 127.953 28.9543" fill="#FFB897"/>
<path d="M128.25 29.1176C127.132 28.4227 123.654 29.7718 120.312 36.2931C116.971 42.8145 112.759 49.1523 115.621 51.9613C118.482 54.7703 130.931 60.217 135.559 59.8141C137.87 59.5278 140.214 59.7829 142.406 60.5591C142.406 60.5591 150.19 52.8888 146.426 46.2399C142.663 39.5909 128.165 29.2541 128.165 29.2541" fill="#FFA182"/>
<path d="M122.627 37.5219C121.876 40.1455 117.292 46.1048 122.234 48.735C127.176 51.3653 146.831 56.5403 150.878 55.0829C154.926 53.6255 161.089 46.4403 159.183 41.7234C157.276 37.0066 131.594 29.4309 127.962 28.9391C124.33 28.4474 122.627 37.5219 122.627 37.5219Z" fill="#FFB897"/>
<path d="M154.565 60.3388C157.078 59.2943 154.293 52.2859 147.708 53.0069C141.123 53.7279 138.06 52.9597 138.248 56.9028C138.436 60.8459 148.621 62.825 154.565 60.3388Z" fill="#FFB897"/>
</g>
</g>
<defs>
<clipPath id="clip0_444:4829">
<rect width="150" height="60" fill="white"/>
</clipPath>
<clipPath id="clip1_444:4829">
<rect width="125" height="139" fill="white" transform="translate(0.457031 -54.0881) rotate(16.0744)"/>
</clipPath>
<clipPath id="clip2_444:4829">
<rect width="120" height="139" fill="white" transform="translate(62.8813 -19) rotate(31.8653)"/>
</clipPath>
</defs>
</svg>
