<svg width="150" height="60" viewBox="0 0 150 60" fill="none" xmlns="http://www.w3.org/2000/svg">
<g clip-path="url(#clip0_444:4857)">
<g clip-path="url(#clip1_444:4857)">
<path d="M-12.4309 65.7561C-12.4309 65.7561 -7.97604 69.5219 2.83366 68.3363C13.6434 67.1508 24.4339 65.1931 49.958 83.4327C75.482 101.672 107.824 114.827 118.251 111.807C128.679 108.788 134.691 103.936 132.853 90.9124C131.015 77.8886 102.183 67.1625 78.2512 62.8325C54.3197 58.5024 23.0525 52.3334 20.7401 48.3918C18.4277 44.4501 1.97693 32.5094 -5.96472 31.531C-13.9064 30.5527 -12.4138 65.7511 -12.4138 65.7511" fill="#FFB897"/>
<path d="M-12.525 65.4314C-12.1589 66.6958 -8.67144 68.0194 -1.82516 65.4074C5.02112 62.7953 12.3915 60.9019 12.1434 56.8996C11.8953 52.8972 6.28564 40.5212 2.57617 37.7248C0.667055 36.3918 -0.904495 34.6343 -2.01462 32.5909C-2.01462 32.5909 -12.9315 33.0853 -14.5821 40.5449C-16.2328 48.0045 -12.3707 65.3867 -12.3707 65.3867" fill="#FFA182"/>
<path d="M-2.72385 62.9453C-0.410546 61.4977 6.98325 60.1346 5.06958 54.8737C3.15591 49.6129 -7.99212 32.6181 -11.9757 30.9937C-15.9592 29.3693 -25.3467 30.5875 -27.0851 35.3687C-28.8235 40.15 -14.8017 62.961 -12.431 65.7561C-10.0602 68.5512 -2.72385 62.9453 -2.72385 62.9453Z" fill="#FFB897"/>
<path d="M-11.1999 24.6207C-13.7669 23.7158 -16.3845 30.7887 -11.0075 34.6578C-5.63045 38.527 -3.8682 41.1464 -1.37022 38.0897C1.12776 35.033 -5.11875 26.7488 -11.1999 24.6207Z" fill="#FFB897"/>
</g>
<g clip-path="url(#clip2_444:4857)">
<path d="M80.0428 -3.81654C80.0428 -3.81654 72.2801 -3.69051 62.0445 3.89514C55.8252 8.59589 50.8396 14.7977 47.5318 21.9483C47.5318 21.9483 53.6521 19.5744 58.3818 21.7722C58.3818 21.7722 55.1882 22.8891 54.6169 33.3506C54.0456 43.8122 73.681 56.509 73.681 56.509L149.284 57.827L152.529 66.3852C152.529 66.3852 152.008 58.1799 157.13 55.2084C162.252 52.2369 177.198 44.5567 178.338 35.3857C179.477 26.2147 157.589 -7.85556 138.333 -12.399C119.077 -16.9424 80.0948 -3.87154 80.0948 -3.87154" fill="#A8472C"/>
<path d="M150.984 50.5787C150.984 50.5787 150.404 65.8964 154.176 68.904C157.948 71.9117 174.424 71.4998 174.424 71.4998C174.424 71.4998 155.476 100.095 137.296 105.265C126.757 108.306 110.276 101.84 102.002 94.4285C102.002 94.4285 113.133 90.8721 109.912 84.8768C106.691 78.8816 150.984 50.5787 150.984 50.5787Z" fill="#FFA182"/>
<path d="M80.0428 -3.81643C80.0428 -3.81643 74.0429 8.1413 73.1134 13.9331C72.1839 19.7249 72.8615 32.1158 71.0535 42.4891C69.2454 52.8624 78.4983 81.4875 79.8396 84.7512C81.1808 88.0149 96.748 89.2605 107.557 86.5577C118.366 83.8549 136.976 74.7072 142.753 66.4177C148.531 58.1281 148.694 51.8794 148.694 51.8794C148.694 51.8794 151.703 54.6106 156.333 51.7554C160.963 48.9002 165.943 37.1576 166.359 30.1466C166.774 23.1355 158.078 22.2839 153.502 27.3586C148.925 32.4334 137.721 33.6262 137.721 33.6262C137.721 33.6262 135.692 30.3737 138.516 21.753C138.516 21.753 134.977 21.1425 130.708 27.7287C130.708 27.7287 135.52 4.57978 131.468 -1.51025C127.416 -7.60028 89.8051 -12.297 79.9725 -3.79724" fill="#FFB897"/>
<path d="M80.5248 34.5728C81.6931 32.6223 85.3795 32.5083 87.3407 32.657C89.9017 32.8481 92.3607 33.7645 94.4424 35.3036C94.697 35.4931 94.9161 35.7281 95.089 35.9972C96.6947 37.0723 96.2693 40.2203 93.9194 40.0418C91.5694 39.8634 77.3303 39.9862 80.5427 34.5906" fill="#FF917E"/>
<path d="M84.4116 25.0684C84.2821 26.8757 78.7702 30.8465 74.8212 26.7405C70.8722 22.6345 75.3848 16.8929 77.8018 16.8536C80.2188 16.8144 84.8833 18.2551 84.4116 25.0684Z" fill="white"/>
<path d="M103.624 23.6373C103.108 25.5954 104.645 28.9101 110.388 29.3945C116.131 29.8789 119.076 28.6758 118.844 26.3147C118.611 23.9536 117.637 19.4203 113.176 18.554C108.715 17.6877 104.392 20.9712 103.624 23.6373Z" fill="white"/>
<path d="M105.252 9.80089C104.7 10.5681 108.077 14.232 109.435 16.3582C110.793 18.4843 123.098 14.4394 126.582 12.7582C128.212 11.8976 129.946 11.2624 131.74 10.8692C131.74 10.8692 128.325 5.99636 126.467 5.64744C124.608 5.29852 107.082 7.29803 105.252 9.78285" fill="#A8472C"/>
<path d="M87.4751 7.23707C88.1517 7.60518 85.634 14.4879 84.2803 13.7155C82.9266 12.9432 77.7067 9.90492 75.4076 10.6824C74.773 10.9605 74.2244 11.4099 73.8203 11.9824C73.4162 12.5549 73.1718 13.2291 73.1133 13.9329C72.6839 11.3578 73.1001 8.71037 74.297 6.40399C76.2713 3.01422 78.1085 2.04567 87.4569 7.20126" fill="#A8472C"/>
<path d="M92.978 51.6285C88.5413 51.1771 84.8587 52.6088 83.8679 60.0624C82.8772 67.516 94.8803 65.534 101.902 65.4561C108.925 65.3782 111.812 62.7859 106.401 57.747C102.804 54.1018 98.0308 51.9259 92.978 51.6285Z" fill="#A61E1E"/>
<path d="M104.653 -21.6365C105.629 -22.4106 121.247 -40.8788 124.91 -42.4367C128.573 -43.9945 156.685 -41.7972 161.604 -39.8552C166.524 -37.9132 189.918 -12.2256 194.541 -5.67548C199.165 0.874621 178.336 35.2954 178.336 35.2954C178.336 35.2954 156.547 11.6758 145.299 2.54347C134.05 -6.58887 104.653 -21.6365 104.653 -21.6365Z" fill="#243437"/>
<path d="M108.418 -24.55C109.464 -25.3251 122.286 -39.9209 125.259 -40.4747C128.232 -41.0284 153.146 -40.1692 156.876 -38.7134C160.605 -37.2576 162.366 -20.1185 162.67 -16.5852C162.975 -13.0519 150.467 2.38731 150.467 2.38731L108.418 -24.55Z" fill="#FFECE3"/>
<path d="M80.0428 -3.8164C80.0428 -3.8164 54.192 -23.2542 52.8239 -28.1783C51.4557 -33.1024 73.7734 -42.1478 79.4284 -41.662C85.0833 -41.1761 109.185 -33.823 117.043 -28.0836C124.901 -22.3442 145.299 2.54363 145.299 2.54363C145.299 2.54363 97.2608 -13.9344 80.0428 -3.8164Z" fill="#243437"/>
<path d="M78.4314 23.0535C78.0413 22.8124 77.5878 22.7008 77.1334 22.734C76.679 22.7673 76.2459 22.9437 75.8937 23.2391C75.4287 23.6457 75.1066 24.1968 74.9764 24.8083C74.8461 25.4199 74.915 26.0584 75.1723 26.6266C75.231 27.0436 75.4103 27.4333 75.6871 27.7454C75.9639 28.0576 76.3256 28.278 76.7256 28.3782C77.1257 28.4785 77.5458 28.4541 77.9319 28.3081C78.3181 28.1621 78.6527 27.9012 78.8927 27.559C79.3952 26.8611 79.6092 25.9888 79.4884 25.1304C79.4875 24.723 79.391 24.3218 79.2071 23.9604C79.0231 23.599 78.7571 23.288 78.4314 23.0535Z" fill="#706029"/>
<path d="M108.702 23.4104C108.312 23.1693 107.858 23.0577 107.404 23.091C106.949 23.1242 106.516 23.3006 106.164 23.596C105.699 24.0026 105.377 24.5537 105.247 25.1653C105.116 25.7769 105.185 26.4154 105.443 26.9835C105.491 27.3183 105.616 27.6368 105.808 27.9129C105.999 28.189 106.252 28.4149 106.545 28.5723C106.989 28.7844 107.491 28.835 107.967 28.7156C108.443 28.5963 108.865 28.3142 109.163 27.916C109.638 27.2053 109.85 26.3439 109.759 25.4873C109.758 25.08 109.661 24.6787 109.477 24.3173C109.293 23.9559 109.027 23.6449 108.702 23.4104Z" fill="#706029"/>
<path d="M84.1018 62.4957C84.1018 62.4957 83.0116 59.4807 84.6412 58.7682C85.2398 58.5987 85.8677 58.5672 86.4798 58.6759C87.0918 58.7846 87.6728 59.0308 88.1808 59.3968L89.2126 59.9035C89.2126 59.9035 86.4442 61.1219 86.6805 62.6344C86.9168 64.1469 92.5782 65.0299 96.8953 64.6348C101.212 64.2398 106.564 63.4128 107.461 63.2718C107.692 63.2333 107.928 63.2579 108.147 63.3431C108.365 63.4284 108.558 63.5712 108.704 63.7571C108.704 63.7571 108.351 65.9111 97.1886 66.3992C86.026 66.8873 84.4619 64.0243 84.1723 62.4946" fill="white"/>
<path d="M140.852 55.8698C140.858 56.2267 140.76 56.5773 140.571 56.8773C140.382 57.1772 140.11 57.413 139.79 57.5548C139.47 57.6967 139.116 57.7382 138.773 57.6741C138.429 57.61 138.112 57.4432 137.862 57.1948C137.611 56.9464 137.438 56.6276 137.364 56.2786C137.29 55.9296 137.319 55.5662 137.447 55.2342C137.575 54.9023 137.797 54.6168 138.084 54.4137C138.371 54.2107 138.71 54.0993 139.059 54.0937C139.527 54.0861 139.978 54.2689 140.315 54.602C140.651 54.9351 140.844 55.3911 140.852 55.8698Z" fill="#D93434"/>
<path d="M139.547 55.891C139.553 55.9555 139.546 56.0205 139.526 56.082C139.506 56.1435 139.474 56.2002 139.431 56.2483C139.389 56.2965 139.338 56.3352 139.28 56.3619C139.222 56.3887 139.16 56.4029 139.096 56.4037C138.965 56.4059 138.839 56.3547 138.745 56.2614C138.651 56.1681 138.597 56.0405 138.594 55.9064C138.601 55.7751 138.653 55.6505 138.743 55.5561C138.832 55.4616 138.952 55.4037 139.08 55.3931C139.21 55.3955 139.334 55.4482 139.427 55.5405C139.52 55.6328 139.576 55.7579 139.582 55.8904" fill="#FF5454"/>
<path d="M114.911 36.3251C114.917 36.6821 114.819 37.0327 114.63 37.3326C114.441 37.6325 114.17 37.8683 113.85 38.0102C113.529 38.152 113.175 38.1935 112.832 38.1294C112.489 38.0653 112.172 37.8985 111.921 37.6501C111.67 37.4018 111.497 37.0829 111.423 36.7339C111.349 36.3849 111.378 36.0215 111.507 35.6896C111.635 35.3576 111.856 35.0721 112.143 34.8691C112.43 34.6661 112.769 34.5547 113.118 34.549C113.586 34.5414 114.038 34.7243 114.374 35.0574C114.71 35.3904 114.904 35.8465 114.911 36.3251Z" fill="#D93434"/>
<path d="M113.624 36.3462C113.622 36.4789 113.57 36.6057 113.48 36.701C113.39 36.7963 113.268 36.853 113.138 36.8596C113.007 36.8617 112.881 36.8105 112.787 36.7172C112.692 36.624 112.638 36.4963 112.636 36.3623C112.629 36.2389 112.668 36.1174 112.745 36.0223C112.822 35.9272 112.931 35.8656 113.051 35.8501C113.181 35.8524 113.305 35.9051 113.398 35.9975C113.491 36.0898 113.547 36.2148 113.553 36.3474" fill="#FF5454"/>
<path d="M84.4526 47.1996C84.4584 47.5566 84.3607 47.9072 84.1716 48.2071C83.9826 48.5071 83.7109 48.7428 83.3908 48.8847C83.0707 49.0265 82.7166 49.068 82.3733 49.0039C82.03 48.9398 81.713 48.7731 81.4622 48.5247C81.2114 48.2763 81.0382 47.9574 80.9644 47.6084C80.8907 47.2595 80.9197 46.896 81.0479 46.5641C81.176 46.2321 81.3975 45.9466 81.6844 45.7436C81.9712 45.5406 82.3106 45.4292 82.6594 45.4235C83.1272 45.4159 83.579 45.5988 83.9153 45.9319C84.2516 46.265 84.4449 46.721 84.4526 47.1996Z" fill="#D93434"/>
<path d="M83.2357 47.2195C83.2379 47.3535 83.188 47.4829 83.0969 47.5792C83.0058 47.6755 82.881 47.7307 82.75 47.7329C82.6191 47.735 82.4926 47.6838 82.3984 47.5905C82.3042 47.4973 82.2501 47.3696 82.248 47.2356C82.2458 47.1015 82.2957 46.9722 82.3868 46.8759C82.4779 46.7796 82.6026 46.7243 82.7336 46.7222C82.8587 46.7198 82.9801 46.7662 83.0732 46.8518C83.1662 46.9374 83.2241 47.0559 83.2351 47.1834" fill="#FF5454"/>
<path d="M141.077 39.2763C141.082 39.6332 140.985 39.9838 140.796 40.2838C140.607 40.5837 140.335 40.8195 140.015 40.9613C139.695 41.1032 139.341 41.1447 138.997 41.0806C138.654 41.0165 138.337 40.8497 138.086 40.6013C137.835 40.3529 137.662 40.0341 137.588 39.6851C137.515 39.3361 137.544 38.9727 137.672 38.6407C137.8 38.3088 138.022 38.0233 138.308 37.8202C138.595 37.6172 138.935 37.5058 139.283 37.5002C139.751 37.4926 140.203 37.6754 140.539 38.0085C140.876 38.3416 141.069 38.7976 141.077 39.2763Z" fill="#D93434"/>
<path d="M139.772 39.2974C139.774 39.4314 139.724 39.5608 139.633 39.6571C139.542 39.7533 139.417 39.8086 139.286 39.8108C139.155 39.8129 139.028 39.7617 138.934 39.6684C138.84 39.5751 138.786 39.4475 138.784 39.3134C138.782 39.1794 138.832 39.05 138.923 38.9538C139.014 38.8575 139.139 38.8022 139.27 38.8001C139.395 38.7977 139.516 38.844 139.609 38.9296C139.702 39.0152 139.76 39.1338 139.771 39.2613" fill="#FF5454"/>
<path d="M92.5391 6.14395C92.5449 6.5009 92.4471 6.8515 92.2581 7.15144C92.0691 7.45138 91.7973 7.68717 91.4773 7.829C91.1572 7.97083 90.8031 8.01233 90.4598 7.94825C90.1165 7.88416 89.7994 7.71738 89.5486 7.46899C89.2978 7.22059 89.1246 6.90175 89.0508 6.55277C88.9771 6.20378 89.0061 5.84034 89.1343 5.5084C89.2624 5.17646 89.484 4.89093 89.7708 4.68791C90.0577 4.48489 90.397 4.37351 90.7459 4.36785C91.2137 4.36025 91.6654 4.54311 92.0017 4.87619C92.338 5.20928 92.5313 5.66531 92.5391 6.14395Z" fill="#D93434"/>
<path d="M91.2339 6.16516C91.2398 6.22967 91.2326 6.29472 91.2128 6.35623C91.1929 6.41773 91.1608 6.47435 91.1185 6.52252C91.0762 6.57069 91.0246 6.60936 90.9669 6.63611C90.9093 6.66286 90.8468 6.6771 90.7835 6.67793C90.6525 6.68006 90.526 6.62886 90.4319 6.5356C90.3377 6.44233 90.2836 6.31465 90.2814 6.18062C90.2876 6.04926 90.3403 5.92471 90.4296 5.83025C90.519 5.73578 90.639 5.67785 90.7671 5.66727C90.8968 5.66967 91.0207 5.72235 91.1139 5.81468C91.2071 5.907 91.2626 6.03207 91.2692 6.16459" fill="#FF5454"/>
<path d="M127.085 47.0131C127.091 47.37 126.993 47.7207 126.804 48.0206C126.615 48.3205 126.343 48.5563 126.023 48.6981C125.703 48.84 125.349 48.8815 125.005 48.8174C124.662 48.7533 124.345 48.5865 124.094 48.3381C123.843 48.0897 123.67 47.7709 123.596 47.4219C123.523 47.0729 123.552 46.7095 123.68 46.3775C123.808 46.0456 124.03 45.7601 124.316 45.5571C124.603 45.354 124.943 45.2427 125.292 45.237C125.759 45.2294 126.211 45.4122 126.547 45.7453C126.884 46.0784 127.077 46.5345 127.085 47.0131Z" fill="#D93434"/>
<path d="M125.797 47.034C125.795 47.1666 125.744 47.2934 125.654 47.3887C125.563 47.484 125.441 47.5407 125.312 47.5473C125.181 47.5494 125.054 47.4982 124.96 47.405C124.866 47.3117 124.812 47.184 124.81 47.05C124.806 46.986 124.815 46.922 124.836 46.8616C124.857 46.8012 124.889 46.7456 124.931 46.698C124.973 46.6504 125.023 46.6117 125.08 46.5841C125.136 46.5565 125.197 46.5406 125.26 46.5372C125.39 46.5396 125.514 46.5923 125.607 46.6846C125.7 46.777 125.756 46.902 125.762 47.0345" fill="#FF5454"/>
<path d="M119.751 -1.44637C119.757 -1.08943 119.659 -0.738817 119.47 -0.43888C119.281 -0.138944 119.009 0.0968481 118.689 0.238678C118.369 0.380508 118.015 0.422006 117.672 0.357925C117.328 0.293843 117.011 0.127062 116.761 -0.121332C116.51 -0.369726 116.337 -0.688574 116.263 -1.03756C116.189 -1.38654 116.218 -1.74998 116.346 -2.08192C116.474 -2.41387 116.696 -2.6994 116.983 -2.90242C117.27 -3.10544 117.609 -3.21682 117.958 -3.22249C118.426 -3.23008 118.877 -3.04722 119.214 -2.71413C119.55 -2.38105 119.743 -1.92502 119.751 -1.44637Z" fill="#D93434"/>
</g>
</g>
<defs>
<clipPath id="clip0_444:4857">
<rect width="150" height="60" fill="white"/>
</clipPath>
<clipPath id="clip1_444:4857">
<rect width="120" height="139" fill="white" transform="translate(3.87573 144.926) rotate(-106.149)"/>
</clipPath>
<clipPath id="clip2_444:4857">
<rect width="148.056" height="148.984" fill="white" transform="translate(46.5 -41.5967) rotate(-0.930133)"/>
</clipPath>
</defs>
</svg>
