<svg width="20" height="23" viewBox="0 0 20 23" fill="none" xmlns="http://www.w3.org/2000/svg">
<g clip-path="url(#clip0)">
<path fill-rule="evenodd" clip-rule="evenodd" d="M0.555664 9.64954C0.555664 4.58968 4.82664 0.5 9.99283 0.5C15.1736 0.5 19.4446 4.58968 19.4446 9.64954C19.4446 12.1993 18.5079 14.5664 16.9662 16.5728C15.2654 18.7859 13.1692 20.7141 10.8096 22.2276C10.2696 22.5774 9.78219 22.6038 9.1895 22.2276C6.81649 20.7141 4.72021 18.7859 3.034 16.5728C1.4912 14.5664 0.555664 12.1993 0.555664 9.64954ZM6.88259 9.93443C6.88259 11.6295 8.27973 12.9627 9.99283 12.9627C11.707 12.9627 13.1177 11.6295 13.1177 9.93443C13.1177 8.25258 11.707 6.85451 9.99283 6.85451C8.27973 6.85451 6.88259 8.25258 6.88259 9.93443Z" fill="#4C7D5A"/>
</g>
<defs>
<clipPath id="clip0">
<rect width="20" height="22" fill="white" transform="translate(0 0.5)"/>
</clipPath>
</defs>
</svg>
