<svg width="112" height="48" viewBox="0 0 112 48" fill="none" xmlns="http://www.w3.org/2000/svg">
<path d="M0.965787 13.1776C-1.02237 8.97622 0.15749 3.60396 3.60108 1.17831C7.04467 -1.24735 11.448 0.192146 13.4361 4.3935L27.8357 34.8224C29.8238 39.0238 28.6439 44.396 25.2004 46.8217C21.7568 49.2473 17.3535 47.8079 15.3653 43.6065L0.965787 13.1776Z" fill="#121232"/>
<path d="M58.5639 4.3935C60.552 0.192146 64.9553 -1.24735 68.3989 1.17831C71.8425 3.60396 73.0224 8.97622 71.0342 13.1776L56.6347 43.6065C54.6465 47.8078 50.2432 49.2473 46.7996 46.8217C43.356 44.396 42.1762 39.0238 44.1643 34.8224L58.5639 4.3935Z" fill="#121232"/>
<path d="M29.7648 13.1776C27.7767 8.97622 28.9565 3.60396 32.4001 1.17831C35.8437 -1.24735 40.247 0.192146 42.2352 4.3935L56.6347 34.8224C58.6229 39.0238 57.443 44.396 53.9994 46.8217C50.5558 49.2473 46.1525 47.8079 44.1643 43.6065L29.7648 13.1776Z" fill="#121232"/>
<path d="M29.7648 4.3935C31.753 0.192146 36.1563 -1.24735 39.5999 1.17831C43.0435 3.60396 44.2233 8.97622 42.2352 13.1776L27.8357 43.6065C25.8475 47.8078 21.4442 49.2473 18.0006 46.8217C14.557 44.396 13.3771 39.0238 15.3653 34.8224L29.7648 4.3935Z" fill="#121232"/>
<path d="M77.0607 40.7066C75.2198 40.7066 73.7275 38.7403 73.7275 36.3146C73.7275 33.8889 75.2198 31.9226 77.0607 31.9226H105.392C107.233 31.9226 108.726 33.8889 108.726 36.3146C108.726 38.7403 107.233 40.7066 105.392 40.7066H77.0607Z" fill="#727279"/>
<path d="M86.2268 4.3935C88.0677 0.192147 92.1447 -1.24735 95.3331 1.17831C98.5216 3.60396 99.614 8.97622 97.7732 13.1776L84.4406 43.6065C82.5997 47.8079 78.5227 49.2473 75.3343 46.8217C72.1458 44.396 71.0534 39.0238 72.8942 34.8224L86.2268 4.3935Z" fill="#727279"/>
<path d="M86.2268 13.1776C84.386 8.97622 85.4784 3.60396 88.6669 1.17831C91.8553 -1.24735 95.9323 0.192146 97.7732 4.3935L111.106 34.8224C112.947 39.0238 111.854 44.396 108.666 46.8217C105.477 49.2473 101.4 47.8079 99.5594 43.6065L86.2268 13.1776Z" fill="#727279"/>
</svg>
