<svg width="40" height="40" viewBox="0 0 40 40" fill="none" xmlns="http://www.w3.org/2000/svg">
<path d="M40 20C40 31.0457 31.0456 40 19.9999 40C8.9544 40 0 31.0457 0 20C0 8.95433 8.9544 0 19.9999 0C31.0456 0 40 8.95433 40 20" fill="#13876F"/>
<path d="M9.55193 23.8397C9.28165 24.0632 8.80291 23.7343 8.15322 23.9173C7.38948 24.1324 6.7133 24.8841 6.59901 25.5026C6.39005 26.6323 7.32473 27.5523 7.45374 27.7251C7.25606 27.6939 6.60465 27.6155 5.97728 28.0048C4.96682 28.6316 4.98006 29.8741 4.98251 29.9631C5.00336 30.7143 5.39504 31.2475 5.63858 31.5098C5.73914 31.6178 5.88384 31.6718 6.03099 31.664C7.52217 31.5837 8.63539 31.8207 9.37583 32.051C10.6777 32.4556 11.4772 33.042 12.8573 33.0041C13.3267 32.9914 13.9865 33.028 14.5979 32.631C14.8755 32.451 15.0629 32.242 15.1782 32.0924C16.1572 32.4807 17.7394 32.9704 19.7373 33.0041C21.9027 33.0402 23.6138 32.5253 24.6277 32.1338C24.8149 32.3541 25.1246 32.6597 25.5811 32.8797C25.8486 33.0088 26.6008 33.3175 28.1506 32.9627C29.6514 32.6193 29.581 32.1843 30.8031 31.8852C32.6288 31.4381 33.4019 32.2578 34.2431 31.5951C34.9519 31.0366 35.2443 29.7917 34.8234 29.067C34.2757 28.1232 32.7304 28.4227 32.5025 27.6163C32.374 27.162 33.0178 26.9252 33.1345 26.0206C33.1657 25.7791 33.3906 24.7392 32.7201 24.1348C32.1685 23.6379 30.9596 23.6142 30.0985 24.0519C30.2719 23.7417 30.4568 23.4493 30.513 23.1401C31.092 19.9499 29.8155 16.8072 29.104 15.6801C29.0422 15.5164 28.9534 15.2732 28.8553 14.9754C28.6434 14.3324 28.2129 13.0018 28.1092 11.4939C28.0442 10.5498 28.1467 10.1081 28.1506 9.62907C28.1695 7.36728 26.2131 4.73835 23.9231 3.86799C19.9575 2.36086 15.0766 3.09098 13.0645 5.9404C12.1943 7.17232 11.8699 8.75422 11.6138 10.0018C11.4355 10.8715 11.3462 11.6794 11.3104 12.3995C11.2489 13.6341 10.9673 14.8459 10.4734 15.979C10.2975 16.3825 10.1491 16.7405 10.039 17.0476C9.43715 18.7234 9.09133 19.8028 9.11414 21.1923C9.13695 22.5826 9.91908 23.5359 9.55193 23.8395" fill="white"/>
<path d="M14.9243 29.074C14.7056 27.1553 14.1059 25.1704 13.5779 23.6229C13.4295 23.188 12.9939 22.8977 12.5407 22.9746C12.511 22.9802 12.4806 22.9862 12.4497 22.9944C12.2549 23.0459 11.9744 23.1585 11.8405 23.3013C11.6658 23.4876 11.5363 23.7795 11.5731 24.0322C11.6097 24.284 11.7262 24.8147 11.4601 25.2027C11.4 25.2903 11.1628 25.5603 10.6846 25.6224C10.0952 25.6985 9.91738 25.134 9.1458 25.0578C9.07099 25.0494 8.29671 24.9831 7.98499 25.4219C7.71324 25.8041 7.91166 26.403 8.08211 26.9179C8.32737 27.6587 8.59593 27.7772 8.45638 28.2174C8.37789 28.4644 8.20253 28.6716 7.97738 28.8002C7.50134 29.0722 7.31666 28.7757 6.94313 28.9564C6.60443 29.1203 6.47517 29.4999 6.41263 29.6841C6.37707 29.7881 6.3545 29.89 6.34151 29.9882C6.27921 30.4611 6.67015 30.8682 7.14718 30.8616C8.29671 30.8452 9.1794 31.0325 9.80604 31.2259C10.6277 31.4798 11.3791 31.8592 12.5914 31.8541C13.1303 31.8513 13.5963 31.8441 14.0166 31.5595C14.2491 31.402 15.1321 30.8966 14.9243 29.0739" fill="#F7C120"/>
<path d="M25.902 23.0646C25.1456 23.6137 26.1229 24.7384 25.3362 26.8641C25.0914 27.5248 24.9222 28.0533 24.8106 28.8247C24.7348 29.3483 24.6139 30.1839 25.1137 30.9466C25.3933 31.3736 25.7744 31.6361 26.1153 31.7972C26.51 31.9836 26.9647 31.9887 27.3733 31.8348C27.9759 31.6084 28.7725 31.371 29.7219 31.2496C31.7043 30.9955 32.8254 31.5457 33.5013 30.805C34.0235 30.2323 34.0485 29.0936 33.6629 28.7637C33.2082 28.3745 32.2873 29.085 31.6621 28.5817C31.3658 28.3431 31.3062 27.9691 31.2981 27.9146C31.2179 27.3613 31.8873 27.0977 32.0663 26.419C32.2157 25.8523 31.8833 25.1751 31.4801 24.9438C31.0242 24.6819 30.1413 25.0557 29.6613 25.3075C29.4386 25.4243 29.2973 25.4896 28.9336 25.5501C28.8998 25.557 28.3742 25.7419 28.0848 25.3885C27.6791 24.8933 28.5034 24.1806 28.2059 23.6403C27.8893 23.0642 26.4501 22.6663 25.902 23.0642" fill="#F7C120"/>
<path d="M20.3254 9.61165C20.3254 10.99 19.4636 12.1072 18.4004 12.1072C17.3372 12.1072 16.4751 10.99 16.4751 9.61165C16.4751 8.23336 17.3372 7.11624 18.4004 7.11624C19.4636 7.11624 20.3254 8.23336 20.3254 9.61165Z" fill="white"/>
<path d="M20.3254 9.61165C20.3254 10.99 19.4636 12.1072 18.4004 12.1072C17.3372 12.1072 16.4751 10.99 16.4751 9.61165C16.4751 8.23336 17.3372 7.11624 18.4004 7.11624C19.4636 7.11624 20.3254 8.23336 20.3254 9.61165Z" stroke="black" stroke-width="0.200732" stroke-miterlimit="10"/>
<path d="M23.7121 10.5921C23.7121 11.9704 22.8503 13.0875 21.7871 13.0875C20.7239 13.0875 19.8618 11.9704 19.8618 10.5921C19.8618 9.21376 20.7239 8.09659 21.7871 8.09659C22.8503 8.09659 23.7121 9.21376 23.7121 10.5921Z" fill="white"/>
<path d="M23.7121 10.5921C23.7121 11.9704 22.8503 13.0875 21.7871 13.0875C20.7239 13.0875 19.8618 11.9704 19.8618 10.5921C19.8618 9.21376 20.7239 8.09659 21.7871 8.09659C22.8503 8.09659 23.7121 9.21376 23.7121 10.5921Z" stroke="black" stroke-width="0.200732" stroke-miterlimit="10"/>
<path d="M21.3208 10.3403C21.1734 10.878 20.7886 11.2413 20.4612 11.1515C20.1338 11.0618 19.9881 10.5531 20.1352 10.0153C20.2826 9.47769 20.6677 9.11445 20.9949 9.20395C21.3223 9.29377 21.4682 9.80238 21.3208 10.3403" fill="black"/>
<path d="M21.3208 10.3403C21.1734 10.878 20.7886 11.2413 20.4612 11.1515C20.1338 11.0618 19.9881 10.5531 20.1352 10.0153C20.2826 9.47769 20.6677 9.11445 20.9949 9.20395C21.3223 9.29377 21.4682 9.80238 21.3208 10.3403V10.3403Z" stroke="black" stroke-width="0.0656167" stroke-miterlimit="10"/>
<path d="M16.1843 12.4979C15.9895 13.2778 17.1268 15.0478 19.3805 15.712C19.8345 15.8457 20.4184 15.8486 20.8744 15.723C23.2043 15.0799 24.3413 13.3259 24.1603 12.5536C23.7797 10.9307 16.5907 10.8716 16.1843 12.4978" fill="#F7C120"/>
<path d="M19.7878 9.83425C19.8606 10.5097 19.5867 11.0932 19.1756 11.1376C18.7643 11.1824 18.3722 10.6703 18.2991 9.99515C18.2262 9.31966 18.5004 8.73631 18.9115 8.69184C19.3225 8.64741 19.715 9.15882 19.7878 9.83425Z" fill="black"/>
<path d="M19.7878 9.83425C19.8606 10.5097 19.5867 11.0932 19.1756 11.1376C18.7643 11.1824 18.3722 10.6703 18.2991 9.99515C18.2262 9.31966 18.5004 8.73631 18.9115 8.69184C19.3225 8.64741 19.715 9.15882 19.7878 9.83425Z" stroke="black" stroke-width="0.0800808" stroke-miterlimit="10"/>
</svg>
