<svg width="4" height="17" viewBox="0 0 4 17" fill="none" xmlns="http://www.w3.org/2000/svg">
<path d="M2 16.5C0.8954 16.5 0 15.6046 0 14.5C0 13.3954 0.8954 12.5 2 12.5C3.1046 12.5 4 13.3954 4 14.5C4 15.6046 3.1046 16.5 2 16.5ZM2 10.5C0.8954 10.5 0 9.6046 0 8.5C0 7.3954 0.8954 6.5 2 6.5C3.1046 6.5 4 7.3954 4 8.5C4 9.0304 3.7893 9.5391 3.4142 9.9142C3.0391 10.2893 2.5304 10.5 2 10.5ZM2 4.5C0.8954 4.5 0 3.60457 0 2.5C0 1.39543 0.8954 0.5 2 0.5C3.1046 0.5 4 1.39543 4 2.5C4 3.03043 3.7893 3.53914 3.4142 3.91421C3.0391 4.28929 2.5304 4.5 2 4.5Z" fill="#333333"/>
</svg>
