<svg width="32" height="11" viewBox="0 0 32 11" fill="none" xmlns="http://www.w3.org/2000/svg">
<path d="M4.5714 10.5C7.09612 10.5 9.14281 8.26142 9.14281 5.5C9.14281 2.73858 7.09612 0.5 4.5714 0.5C2.04669 0.5 0 2.73858 0 5.5C0 8.26142 2.04669 10.5 4.5714 10.5Z" fill="#232735"/>
<path d="M15.9991 10.5C18.5239 10.5 20.5705 8.26142 20.5705 5.5C20.5705 2.73858 18.5239 0.5 15.9991 0.5C13.4744 0.5 11.4277 2.73858 11.4277 5.5C11.4277 8.26142 13.4744 10.5 15.9991 10.5Z" fill="#232735"/>
<path d="M27.4288 10.5C29.9535 10.5 32.0002 8.26142 32.0002 5.5C32.0002 2.73858 29.9535 0.5 27.4288 0.5C24.9041 0.5 22.8574 2.73858 22.8574 5.5C22.8574 8.26142 24.9041 10.5 27.4288 10.5Z" fill="#232735"/>
</svg>
