<svg width="24" height="24" viewBox="0 0 24 24" fill="none" xmlns="http://www.w3.org/2000/svg">
<path d="M2.4 21H0C0 16.8026 3.22355 13.4 7.2 13.4C11.1765 13.4 14.4 16.8026 14.4 21H12C12 18.2018 9.85097 15.9333 7.2 15.9333C4.54903 15.9333 2.4 18.2018 2.4 21ZM20.4 17.2H18V13.4H14.4V10.8667H18V7.06667H20.4V10.8667H24V13.4H20.4V17.2ZM7.2 12.1333C4.54903 12.1333 2.4 9.86491 2.4 7.06667C2.4 4.26842 4.54903 2 7.2 2C9.85097 2 12 4.26842 12 7.06667C11.9967 9.86346 9.8496 12.1298 7.2 12.1333ZM7.2 4.53333C5.88887 4.53474 4.82147 5.64654 4.80268 7.03036C4.78389 8.41419 5.82068 9.55782 7.13123 9.59888C8.44178 9.63994 9.541 8.56323 9.6 7.18067V7.68733V7.06667C9.6 5.66755 8.52548 4.53333 7.2 4.53333Z" fill="#243437"/>
</svg>
