<svg width="30" height="35" viewBox="0 0 30 35" fill="none" xmlns="http://www.w3.org/2000/svg">
<path fill-rule="evenodd" clip-rule="evenodd" d="M26.4415 12.0538C26.4415 14.1889 27.0077 15.4472 28.2539 16.8975C29.1982 17.966 29.5 19.3374 29.5 20.8252C29.5 22.3113 29.0101 23.7222 28.0283 24.8676C26.7433 26.2409 24.9308 27.1174 23.0811 27.2699C20.4007 27.4975 17.7187 27.6893 15.0009 27.6893C12.2813 27.6893 9.60097 27.5747 6.92051 27.2699C5.06914 27.1174 3.25674 26.2409 1.97332 24.8676C0.991669 23.7222 0.5 22.3113 0.5 20.8252C0.5 19.3374 0.803477 17.966 1.74613 16.8975C3.03126 15.4472 3.56022 14.1889 3.56022 12.0538V11.3295C3.56022 8.47018 4.27568 6.60048 5.749 4.77016C7.93946 2.10089 11.4507 0.5 14.9246 0.5H15.0771C18.6257 0.5 22.2503 2.17793 24.4037 4.96192C25.8006 6.75457 26.4415 8.5455 26.4415 11.3295V12.0538ZM10.008 31.2034C10.008 30.3474 10.7964 29.9552 11.5254 29.7874C12.3782 29.6077 17.5747 29.6077 18.4275 29.7874C19.1566 29.9552 19.9448 30.3474 19.9448 31.2034C19.9024 32.0183 19.4227 32.741 18.7598 33.1998C17.9002 33.8676 16.8915 34.2904 15.8369 34.4429C15.2537 34.5182 14.6807 34.5199 14.1177 34.4429C13.0614 34.2904 12.0527 33.8676 11.1948 33.1981C10.5302 32.741 10.0504 32.0183 10.008 31.2034Z" fill="#232735"/>
</svg>
