<svg width="26" height="26" viewBox="0 0 26 26" fill="none" xmlns="http://www.w3.org/2000/svg">
<path d="M2.24601 25.137C1.87397 25.1364 1.51929 24.9796 1.26852 24.7046C1.01314 24.4321 0.88624 24.0634 0.919702 23.6913L1.24465 20.1183L16.2559 5.1124L20.947 9.80224L5.93979 24.8068L2.36671 25.1317C2.32559 25.1357 2.28448 25.137 2.24601 25.137ZM21.8834 8.86454L17.1936 4.1747L20.0067 1.36159C20.2555 1.11253 20.593 0.972595 20.945 0.972595C21.297 0.972595 21.6346 1.11253 21.8834 1.36159L24.6965 4.1747C24.9456 4.42347 25.0855 4.76105 25.0855 5.11306C25.0855 5.46508 24.9456 5.80265 24.6965 6.05143L21.8847 8.86321L21.8834 8.86454Z" fill="white"/>
</svg>
