<svg width="11" height="11" viewBox="0 0 11 11" fill="none" xmlns="http://www.w3.org/2000/svg">
<path d="M1.0509 10.5C0.896977 10.4997 0.750241 10.4348 0.646496 10.3211C0.540837 10.2083 0.488335 10.0557 0.502183 9.90173L0.636619 8.42308L6.84702 2.21318L8.78784 4.15398L2.57908 10.3633L1.10084 10.4978C1.08382 10.4995 1.06681 10.5 1.0509 10.5ZM9.17523 3.76593L7.23496 1.82513L8.3988 0.660976C8.50172 0.557911 8.64138 0.5 8.78702 0.5C8.93265 0.5 9.07231 0.557911 9.17523 0.660976L10.3391 1.82513C10.4421 1.92808 10.5 2.06778 10.5 2.21345C10.5 2.35913 10.4421 2.49883 10.3391 2.60178L9.17578 3.76538L9.17523 3.76593Z" fill="#E0E0E0"/>
</svg>
