<svg width="17" height="17" viewBox="0 0 17 17" fill="none" xmlns="http://www.w3.org/2000/svg">
<path d="M15.1916 16.8038L9.47665 11.0878C6.93425 12.8953 3.43107 12.4532 1.4175 10.0707C-0.596062 7.6883 -0.448212 4.16041 1.75763 1.95482C3.96289 -0.251726 7.49115 -0.400216 9.87405 1.61324C12.2568 3.62669 12.6992 7.13027 10.8916 9.6728L16.6066 15.3888L15.1926 16.8028L15.1916 16.8038ZM5.99963 2.19681C4.10333 2.19638 2.46732 3.5275 2.0821 5.38425C1.69689 7.241 2.66834 9.1131 4.40831 9.8671C6.14827 10.621 8.17855 10.0496 9.26985 8.4989C10.3612 6.94809 10.2136 4.84414 8.91665 3.46082L9.52165 4.06082L8.83965 3.38082L8.82765 3.36882C8.07945 2.616 7.06105 2.19395 5.99963 2.19681Z" fill="#333333"/>
</svg>
