<svg width="64" height="64" viewBox="0 0 64 64" fill="none" xmlns="http://www.w3.org/2000/svg">
<path d="M43.4812 40.4179C43.522 44.187 34.7936 56.3866 22.2423 63.8611C22.0867 63.9516 21.9102 63.9993 21.7304 63.9993C21.5507 63.9993 21.3741 63.9516 21.2186 63.8611C8.6899 56.3866 0 44.1961 0 40.4293C0.0724725 33.3963 0 12.1654 0 11.9492C0.000557122 11.8011 0.0313916 11.6546 0.0905906 11.519C0.145913 11.3953 0.22498 11.2838 0.323263 11.1908C0.421546 11.0978 0.537113 11.0253 0.663342 10.9773C0.789572 10.9293 0.923985 10.9068 1.05888 10.9111C1.19377 10.9154 1.3265 10.9464 1.44945 11.0023C3.93236 12.1463 6.6289 12.7468 9.36027 12.764C13.6059 12.7234 17.7197 11.2771 21.0646 8.64892C21.2519 8.48189 21.4936 8.38965 21.744 8.38965C21.9944 8.38965 22.2361 8.48189 22.4234 8.64892C25.0215 10.6753 28.0885 12.0066 31.3376 12.5182L29.2132 14.6531L30.7329 16.1826L32.9501 18.4359C32.2756 18.5414 31.5943 18.5969 30.9118 18.602C27.8338 18.5679 24.8513 17.5232 22.4189 15.6273C22.2316 15.4602 21.9899 15.368 21.7395 15.368C21.4891 15.368 21.2474 15.4602 21.0601 15.6273C18.6134 17.5095 15.6212 18.5358 12.54 18.5497C10.5555 18.5348 8.59691 18.0956 6.7943 17.2615C6.66092 17.2022 6.5166 17.172 6.37078 17.1727C6.23597 17.173 6.10254 17.2 5.97816 17.2523C5.85378 17.3046 5.7409 17.381 5.64599 17.4772C5.55108 17.5734 5.47603 17.6876 5.42512 17.813C5.37422 17.9385 5.34848 18.0728 5.34938 18.2083C5.34938 18.3722 5.3992 34.0837 5.34938 39.2935C5.34938 42.1659 11.8651 51.3292 21.239 56.9101C21.3945 57.0006 21.5711 57.0483 21.7508 57.0483C21.9305 57.0483 22.1071 57.0006 22.2626 56.9101C31.6161 51.3292 38.1319 42.1659 38.1319 39.2935C38.1205 38.6335 38.1137 37.8004 38.1069 36.8491L38.236 36.9788L43.445 31.7439C43.4518 35.2444 43.4608 38.4104 43.4812 40.4179Z" fill="#F7F7F7"/>
<path d="M36.082 39.2958C36.082 40.7161 30.8889 49.0828 21.7392 54.7387C12.5194 49.1169 7.39648 40.7411 7.39648 39.2958V19.7332C9.05899 20.3226 10.8086 20.6258 12.5715 20.63C15.8558 20.6044 19.0542 19.5721 21.7392 17.6711C24.4406 19.5788 27.6598 20.6069 30.9614 20.6163C32.2109 20.6143 33.4556 20.4615 34.6688 20.1611L35.8012 21.2992L32.9272 24.1874L29.222 27.9133L36.0616 34.7938C36.0548 36.6033 36.0639 38.1919 36.082 39.2958Z" fill="#F7F7F7"/>
<path d="M38.2475 31.3547L34.8164 27.902L49.4015 13.2352L63.9934 27.902L60.5645 31.3502L49.4015 20.127L38.2317 31.3502L38.2475 31.3547ZM38.2475 18.1196L34.8164 14.6645L49.4015 0L63.9934 14.6645L60.5713 18.115L49.4015 6.89185L38.2317 18.115L38.2475 18.1196Z" fill="#F7F7F7"/>
</svg>
