<svg width="12" height="12" viewBox="0 0 12 12" fill="none" xmlns="http://www.w3.org/2000/svg">
<path d="M8.15273 7.57841C8.16037 8.28513 6.5238 10.5725 4.17042 11.974C4.14126 11.991 4.10815 11.9999 4.07445 11.9999C4.04075 11.9999 4.00765 11.991 3.97848 11.974C1.62936 10.5725 0 8.28683 0 7.58055C0.0135886 6.26187 0 2.28107 0 2.24053C0.00010446 2.21276 0.00588592 2.18531 0.0169857 2.15987C0.0273586 2.13668 0.0421838 2.11577 0.0606118 2.09834C0.0790398 2.08091 0.100709 2.0673 0.124377 2.0583C0.148045 2.04931 0.173247 2.04509 0.19854 2.04589C0.223832 2.0467 0.248718 2.05251 0.271772 2.063C0.737318 2.2775 1.24292 2.39009 1.75505 2.39331C2.55111 2.38571 3.32245 2.11451 3.94961 1.62173C3.98473 1.59042 4.03005 1.57312 4.077 1.57312C4.12395 1.57312 4.16928 1.59042 4.20439 1.62173C4.69154 2.00168 5.26659 2.25129 5.87579 2.34722L5.47748 2.74752L5.76241 3.0343L6.17814 3.45679C6.05168 3.47657 5.92394 3.48698 5.79596 3.48794C5.21883 3.48154 4.65961 3.28566 4.20355 2.93017C4.16843 2.89885 4.1231 2.88156 4.07615 2.88156C4.0292 2.88156 3.98388 2.89885 3.94876 2.93017C3.49001 3.28309 2.92898 3.47553 2.35125 3.47813C1.97916 3.47533 1.61192 3.39299 1.27393 3.23658C1.24892 3.22548 1.22186 3.2198 1.19452 3.21994C1.16924 3.22 1.14423 3.22507 1.12091 3.23487C1.09758 3.24467 1.07642 3.259 1.05862 3.27704C1.04083 3.29508 1.02675 3.31648 1.01721 3.34C1.00767 3.36353 1.00284 3.38871 1.00301 3.41411C1.00301 3.44484 1.01235 6.39075 1.00301 7.3676C1.00301 7.90616 2.22471 9.62429 3.98231 10.6707C4.01147 10.6877 4.04457 10.6966 4.07828 10.6966C4.11198 10.6966 4.14508 10.6877 4.17424 10.6707C5.92802 9.62429 7.14972 7.90616 7.14972 7.3676C7.1476 7.24384 7.14633 7.08764 7.14505 6.90926L7.16926 6.93358L8.14594 5.95204C8.14721 6.60839 8.14891 7.20201 8.15273 7.57841Z" fill="#F7F7F7"/>
<path d="M6.76525 7.36798C6.76525 7.63428 5.79155 9.20304 4.07599 10.2635C2.34726 9.20944 1.38672 7.63897 1.38672 7.36798V3.7C1.69844 3.81051 2.02648 3.86735 2.35703 3.86814C2.97284 3.86333 3.57253 3.66978 4.07599 3.31335C4.5825 3.67104 5.18608 3.8638 5.80513 3.86558C6.03941 3.8652 6.2728 3.83654 6.50028 3.78023L6.7126 3.99361L6.17372 4.53516L5.47901 5.23376L6.76143 6.52385C6.76016 6.86312 6.76186 7.161 6.76525 7.36798Z" fill="#F7F7F7"/>
<path d="M7.17117 5.87901L6.52783 5.23162L9.26254 2.4816L11.9985 5.23162L11.3556 5.87816L9.26254 3.77382L7.16819 5.87816L7.17117 5.87901ZM7.17117 3.39742L6.52783 2.7496L9.26254 0L11.9985 2.7496L11.3569 3.39656L9.26254 1.29222L7.16819 3.39656L7.17117 3.39742Z" fill="#F7F7F7"/>
</svg>
