<svg width="30" height="30" viewBox="0 0 30 30" fill="none" xmlns="http://www.w3.org/2000/svg">
<g clip-path="url(#clip0_687:8260)">
<path d="M22.7756 6.12C21.883 6.43278 20.9443 6.5942 19.9985 6.59767C18.2089 6.59225 16.4641 6.0378 14.9997 5.00916C13.5434 6.03377 11.8092 6.58982 10.0286 6.60322C9.07318 6.601 8.12493 6.43764 7.22375 6.12V16.6731C7.22375 17.4562 10.0009 21.9718 14.9997 25.0044C19.9596 21.9552 22.7756 17.4396 22.7756 16.6731C22.7368 14.4069 22.7756 8.3417 22.7756 6.12Z" fill="#243437"/>
<path d="M26.7862 1.92118C26.7886 1.61445 26.542 1.36381 26.2352 1.36138C26.1553 1.36076 26.076 1.37742 26.0031 1.41019C24.6573 2.0272 23.1957 2.35094 21.7152 2.35996C19.4134 2.33164 17.1839 1.55141 15.3667 0.138267C15.157 -0.0459261 14.8432 -0.0459261 14.6335 0.138267C12.8195 1.55731 10.588 2.33823 8.28503 2.35996C6.80455 2.35094 5.34295 2.0272 3.99715 1.41019C3.71736 1.28438 3.38862 1.40929 3.26281 1.68901C3.23004 1.76198 3.21338 1.84113 3.21401 1.92118C3.21401 2.03782 3.25289 13.4907 3.21401 17.2842C3.21401 19.3171 7.92401 25.8933 14.7168 29.9257C14.8887 30.0249 15.1004 30.0249 15.2723 29.9257C22.0762 25.8933 26.8084 19.3115 26.7862 17.2787C26.7473 13.4851 26.7862 2.03226 26.7862 1.92118ZM15.2834 26.1766C15.1115 26.2758 14.8998 26.2758 14.728 26.1766C9.64582 23.1662 6.11332 18.2229 6.11332 16.6733C6.14109 13.8628 6.11332 5.38703 6.11332 5.29816C6.11089 4.99143 6.35757 4.74079 6.6643 4.73836C6.74428 4.73774 6.8235 4.7544 6.89647 4.78717C7.87416 5.23678 8.93627 5.47346 10.0124 5.48145C11.6843 5.4727 13.3074 4.91672 14.6335 3.89849C14.8432 3.7143 15.157 3.7143 15.3667 3.89849C16.6853 4.92158 18.3023 5.48534 19.9712 5.50367C21.0473 5.49568 22.1094 5.259 23.0871 4.80939C23.3669 4.68358 23.6956 4.80848 23.8214 5.08821C23.8542 5.16118 23.8709 5.24033 23.8702 5.32038C23.8869 5.40369 23.8425 13.8961 23.8869 16.6733C23.8869 18.2229 20.3544 23.1662 15.2834 26.1766Z" fill="#243437"/>
</g>
<defs>
<clipPath id="clip0_687:8260">
<rect width="30" height="30" fill="white"/>
</clipPath>
</defs>
</svg>
