<svg width="46" height="114" viewBox="0 0 46 114" fill="none" xmlns="http://www.w3.org/2000/svg">
<path d="M13.7478 35.5929C6.16819 55.1841 -0.0155664 71.2462 2.94357e-05 71.2462C0.0156253 71.2462 4.13683 69.6811 9.16649 67.7413C14.1961 65.8015 18.329 64.1699 18.3446 64.1699C18.3602 64.1699 18.4031 75.3796 18.4187 89.0729L18.4616 114L32.2366 78.4192C39.8201 58.8522 46.0156 42.8142 46 42.7659C45.9844 42.7175 41.8671 44.331 36.8335 46.2768C31.8 48.2226 27.671 49.8784 27.6554 49.8784C27.6398 49.8784 27.5969 38.6446 27.5813 24.9271L27.5384 0L13.7478 35.5929Z" fill="#243437"/>
</svg>
