<svg width="25" height="43" viewBox="0 0 25 43" fill="none" xmlns="http://www.w3.org/2000/svg">
<g clip-path="url(#clip0)">
<path d="M5.23835 42.7506C5.14121 42.7506 5.04456 42.6932 4.96443 42.5784C4.79949 42.3411 4.7593 41.9274 4.86951 41.6072L10.89 24.1253H7.34413C7.17179 24.1253 7.01622 23.9458 6.94817 23.6688C6.88037 23.3918 6.91316 23.0703 7.03175 22.852L18.9011 0.985129C19.0459 0.717191 19.2806 0.674045 19.4549 0.879852C19.6289 1.08652 19.6926 1.48347 19.605 1.81871L15.3405 18.093H19.8395C20.0175 18.093 20.1775 18.285 20.2414 18.5758C20.3057 18.8666 20.2608 19.1967 20.1289 19.4059L5.5278 42.5551C5.4457 42.685 5.34239 42.7506 5.23835 42.7506ZM8.34758 22.6173H11.6528C11.8079 22.6173 11.9514 22.7636 12.0281 23.0004C12.1043 23.2373 12.1023 23.5277 12.0217 23.7603L7.11829 37.998L18.7221 19.601H14.6689C14.5219 19.601 14.3851 19.4702 14.3062 19.2541C14.227 19.0379 14.216 18.7657 14.2771 18.5322L17.7421 5.30924L8.34758 22.6173Z" fill="black"/>
</g>
<defs>
<clipPath id="clip0">
<rect width="24" height="42" fill="white" transform="translate(0.5 0.75)"/>
</clipPath>
</defs>
</svg>
