<svg width="139" height="138" viewBox="0 0 139 138" fill="none" xmlns="http://www.w3.org/2000/svg">
<path d="M68.7812 53.6668C65.2088 53.6668 62.3125 50.6634 62.3125 46.9585C62.3125 43.2535 65.2088 40.2501 68.7812 40.2501C72.3537 40.2501 75.25 43.2535 75.25 46.9585C75.25 50.6634 72.3537 53.6668 68.7812 53.6668Z" fill="#333333"/>
<path d="M109.75 80.5002H58L70.9375 62.6113L75.25 67.0837L88.1875 49.1946L109.75 80.5002Z" fill="#333333"/>
<path fill-rule="evenodd" clip-rule="evenodd" d="M115.5 103.5H46.5C40.1487 103.5 35 98.3516 35 92.0001V23.0001C35 16.6488 40.1487 11.5001 46.5 11.5001H115.5C121.851 11.5001 127 16.6488 127 23.0001V92.0001C127 98.3516 121.851 103.5 115.5 103.5ZM46.5 23.0001V92.0001H115.5V23.0001H46.5Z" fill="#333333"/>
<path d="M23.5 46.0001H12V115C12 121.352 17.1487 126.5 23.5 126.5H92.5V115H23.5V46.0001Z" fill="#333333"/>
</svg>
