<svg width="24" height="24" viewBox="0 0 24 24" fill="none" xmlns="http://www.w3.org/2000/svg">
<path d="M5.75 7.05263C5.75 3.70986 8.54822 1 12 1C15.4518 1 18.25 3.70986 18.25 7.05263C18.25 10.3954 15.4518 13.1053 12 13.1053C8.54822 13.1053 5.75 10.3954 5.75 7.05263ZM12 10.6842C14.0711 10.6842 15.75 9.0583 15.75 7.05263C15.75 5.04697 14.0711 3.42105 12 3.42105C9.92893 3.42105 8.25 5.04697 8.25 7.05263C8.25 9.0583 9.92893 10.6842 12 10.6842Z" fill="#243437"/>
<path d="M4.92893 17.1522C3.05357 18.9684 2 21.4316 2 24H4.5C4.5 22.0737 5.29018 20.2263 6.6967 18.8642C8.10322 17.5021 10.0109 16.7368 12 16.7368C13.9891 16.7368 15.8968 17.5021 17.3033 18.8642C18.7098 20.2263 19.5 22.0737 19.5 24H22C22 21.4316 20.9464 18.9684 19.0711 17.1522C17.1957 15.3361 14.6522 14.3158 12 14.3158C9.34784 14.3158 6.8043 15.3361 4.92893 17.1522Z" fill="#243437"/>
</svg>
